<svg width="512" height="512" viewBox="0 0 512 512" fill="none" xmlns="http://www.w3.org/2000/svg">
<path d="M256 512C391.31 512 501 397.385 501 256C501 114.615 391.31 0 256 0C120.69 0 11 114.615 11 256C11 397.385 120.69 512 256 512Z" fill="#E88102"/>
<path d="M256 485C389.929 485 498.5 376.429 498.5 242.5C498.5 108.571 389.929 0 256 0C122.071 0 13.5 108.571 13.5 242.5C13.5 376.429 122.071 485 256 485Z" fill="#FDD835"/>
<path d="M352.8 20.1L33.6002 339.2C22.9002 314.7 16.2002 288.1 14.2002 260.2L273.7 0.599976C301.6 2.69998 328.2 9.39998 352.8 20.1ZM467.3 123.5L137 453.8C116.4 442.2 97.8002 427.7 81.5002 410.8L424.4 68C441.2 84.2 455.7 102.9 467.3 123.5ZM414.5 58.9L72.5002 400.9C67.2002 394.7 62.1002 388.2 57.4002 381.5L395.1 43.8C401.8 48.5 408.3 53.6 414.5 58.9ZM490.9 182L195.5 477.4C186.6 475.1 177.9 472.3 169.4 469.1L482.6 155.9C485.8 164.4 488.6 173.1 490.9 182Z" fill="white" fill-opacity="0.313726"/>
<path d="M498.5 242.5C498.5 244.2 498.5 245.8 498.4 247.5C495.8 115.9 388.3 10 256 10C123.7 10 16.2 115.9 13.6 247.5C13.6 245.8 13.5 244.2 13.5 242.5C13.5 108.6 122.1 0 256 0C389.9 0 498.5 108.6 498.5 242.5Z" fill="white" fill-opacity="0.313726"/>
<path d="M453 253C453 357.9 367.9 443 263 443C204.1 443 151.4 416.1 116.5 374C151.2 411.5 200.8 435 256 435C360.9 435 446 349.9 446 245C446 199 429.7 156.9 402.5 124C433.8 157.9 453 203.2 453 253Z" fill="white" fill-opacity="0.313726"/>
<path d="M256 435C360.934 435 446 349.934 446 245C446 140.066 360.934 55 256 55C151.066 55 66 140.066 66 245C66 349.934 151.066 435 256 435Z" fill="#F39E09"/>
<path d="M400 121C366.7 92.3 323.4 75 276 75C171.1 75 86 160.1 86 265C86 312.4 103.3 355.7 132 389C91.6 354.1 66 302.6 66 245C66 140.1 151.1 55 256 55C313.5 55 365.1 80.6 400 121Z" fill="#E88102"/>
<path d="M207.752 375.5C200.919 375.5 195.252 374.333 190.752 372C186.252 369.833 183.169 366.667 181.502 362.5C186.335 360.833 190.502 358.75 194.002 356.25C197.335 353.75 200.335 350.167 203.002 345.5C205.502 340.833 207.835 334.417 210.002 326.25C212.335 318.083 214.752 307.583 217.252 294.75L233.752 208.5H277.752L260.502 297.75C256.835 316.25 252.835 331.167 248.502 342.5C244.169 354 238.752 362.333 232.252 367.5C225.752 372.833 217.585 375.5 207.752 375.5ZM215.502 211.75L217.752 200.5H235.252L238.752 186C241.252 176 245.419 168.25 251.252 162.75C257.085 157.25 264.085 153.417 272.252 151.25C280.419 149.083 289.085 148 298.252 148C302.919 148 307.669 148.333 312.502 149C317.502 149.5 322.085 150.5 326.252 152C330.419 153.5 333.752 155.667 336.252 158.5C338.919 161.167 340.252 164.583 340.252 168.75C340.252 174.583 337.835 178.917 333.002 181.75C328.335 184.583 323.085 186 317.252 186C314.919 186 312.502 185.833 310.002 185.5C307.669 185 305.502 184.167 303.502 183C304.669 181 305.502 178.667 306.002 176C306.669 173.167 307.002 170.667 307.002 168.5C307.002 165.667 306.419 163.417 305.252 161.75C304.085 159.917 302.002 159 299.002 159C294.169 159 290.419 161.333 287.752 166C285.252 170.667 283.419 176.5 282.252 183.5L279.252 200.5H301.752L300.252 211.75H215.502Z" fill="#DB6704"/>
<path d="M207.752 360.5C200.919 360.5 195.252 359.333 190.752 357C186.252 354.833 183.169 351.667 181.502 347.5C186.335 345.833 190.502 343.75 194.002 341.25C197.335 338.75 200.335 335.167 203.002 330.5C205.502 325.833 207.835 319.417 210.002 311.25C212.335 303.083 214.752 292.583 217.252 279.75L233.752 193.5H277.752L260.502 282.75C256.835 301.25 252.835 316.167 248.502 327.5C244.169 339 238.752 347.333 232.252 352.5C225.752 357.833 217.585 360.5 207.752 360.5ZM215.502 196.75L217.752 185.5H235.252L238.752 171C241.252 161 245.419 153.25 251.252 147.75C257.085 142.25 264.085 138.417 272.252 136.25C280.419 134.083 289.085 133 298.252 133C302.919 133 307.669 133.333 312.502 134C317.502 134.5 322.085 135.5 326.252 137C330.419 138.5 333.752 140.667 336.252 143.5C338.919 146.167 340.252 149.583 340.252 153.75C340.252 159.583 337.835 163.917 333.002 166.75C328.335 169.583 323.085 171 317.252 171C314.919 171 312.502 170.833 310.002 170.5C307.669 170 305.502 169.167 303.502 168C304.669 166 305.502 163.667 306.002 161C306.669 158.167 307.002 155.667 307.002 153.5C307.002 150.667 306.419 148.417 305.252 146.75C304.085 144.917 302.002 144 299.002 144C294.169 144 290.419 146.333 287.752 151C285.252 155.667 283.419 161.5 282.252 168.5L279.252 185.5H301.752L300.252 196.75H215.502Z" fill="#FDD835"/>
<path d="M414.5 140.1C291.5 183.3 192.7 278.2 144.3 398.7C140.1 395.6 136 392.4 132 388.9C103.3 355.6 86 312.3 86 265C86 160.1 171.1 75 276 75C323.4 75 366.7 92.3 399.9 121C405.2 127.1 410 133.5 414.5 140.1Z" fill="white" fill-opacity="0.145098"/>
</svg>
