<svg width="42" height="32" viewBox="0 0 42 32" fill="none" xmlns="http://www.w3.org/2000/svg">
<path d="M40.1452 16.5732C39.1187 15.4707 37.7729 14.7538 36.3169 14.5339C34.861 14.314 33.3763 14.6034 32.0937 15.3572C29.0061 17.1641 25.1047 18.137 21.1149 18.137C17.0393 18.137 13.082 17.1155 9.9712 15.2574C8.69933 14.4907 7.2212 14.1843 5.76594 14.3857C4.31069 14.5871 2.95956 15.2851 1.92203 16.3713C1.20488 17.1238 0.663822 18.0396 0.341155 19.0471C0.0184884 20.0546 -0.0770438 21.1266 0.0620238 22.1792C0.194384 23.2296 0.557039 24.2338 1.12167 25.1135C1.6863 25.9932 2.43764 26.7244 3.31703 27.2502C8.46924 30.3657 14.6236 32 21.1149 32C27.4738 32 33.5329 30.4143 38.6386 27.4106C39.5174 26.8957 40.2712 26.1758 40.8413 25.307C41.4113 24.4381 41.7826 23.4435 41.926 22.4005C42.0776 21.3513 41.9956 20.2798 41.6867 19.269C41.3779 18.2583 40.8504 17.3359 40.1452 16.5732ZM39.6289 22.0478C39.5383 22.7235 39.2997 23.3683 38.932 23.9319C38.5642 24.4954 38.0771 24.9627 37.5086 25.2972C32.7399 28.1086 27.074 29.5679 21.1149 29.5679C15.0304 29.5679 9.27835 28.0382 4.47721 25.1439C3.90714 24.8024 3.42021 24.3277 3.05441 23.7569C2.68862 23.1861 2.45386 22.5346 2.36843 21.8533C2.27846 21.1698 2.34055 20.4737 2.54985 19.8195C2.75915 19.1651 3.11001 18.5702 3.5751 18.081C3.97549 17.6603 4.45164 17.3267 4.97602 17.0996C5.5004 16.8726 6.06262 16.7564 6.63017 16.758C7.39788 16.7582 8.15219 16.9686 8.81799 17.3684C12.273 19.4334 16.6417 20.5691 21.1149 20.5691C25.4952 20.5691 29.7966 19.4698 33.2236 17.4754C34.0579 16.982 35.0248 16.7907 35.9739 16.9314C36.9228 17.0723 37.8007 17.5372 38.4711 18.2538C38.931 18.7497 39.2749 19.3504 39.4758 20.0086C39.6767 20.6668 39.7291 21.3649 39.6289 22.0478Z" fill="white"/>
<path d="M8.98694 19.7077C7.16181 18.8152 6.39223 18.5988 5.82028 19.8804C5.32273 20.9943 6.13881 21.4979 7.7547 22.4658C8.79862 23.0884 8.93115 23.1225 8.87069 23.2612C8.78002 23.4581 8.6754 23.3949 7.68262 22.9085C6.62474 22.3929 6.28761 22.2373 6.28761 21.9648C6.11324 21.8796 5.24833 21.33 5.24833 21.33C4.68569 22.5922 4.91819 22.9815 7.10835 24.0491C9.48217 25.2092 9.98438 25.1704 10.4796 24.0613C10.9748 22.9523 10.5005 22.6726 8.29177 21.3544C7.29202 20.756 7.21994 20.7146 7.25947 20.5956C7.33154 20.435 7.44314 20.4253 8.49173 20.9385C9.57517 21.4687 10.0355 21.7045 9.89835 21.9866C10.1309 22.101 10.9655 22.5802 10.9655 22.5802C11.5142 21.3276 11.1539 20.7682 8.98694 19.7077Z" fill="white"/>
<path d="M14.0137 23.3494L16.262 23.6049L15.9294 26.7861L17.436 26.9587L17.7663 23.7776L20.0121 24.0329L20.1772 22.4569L14.1788 21.7759L14.0137 23.3494Z" fill="white"/>
<path d="M23.6458 22.4587L22.0557 27.4104L23.7785 27.3958L24.0621 26.4011L26.3104 26.1578L26.7754 27.0699L28.4702 26.7392L25.9523 22.1814L23.6458 22.4587ZM24.4712 24.971L24.9363 23.6698L25.6338 24.8494L24.4712 24.971Z" fill="white"/>
<path d="M33.9065 19.6626L34.9435 22.2796L31.8721 20.543L29.9238 21.2946L31.6745 25.8062L33.0857 25.237L32.0186 22.5374L35.2202 24.347L37.0545 23.4737L35.2434 18.9622L33.9065 19.6626Z" fill="white"/>
<path d="M10.2125 10.233L12.6946 7.63264L15.1767 10.233L17.5795 7.71805L15.0974 5.11769L17.5795 2.51733L15.1767 0L12.6946 2.60037L10.2125 0L7.81201 2.51733L10.2941 5.11769L7.81201 7.71805L10.2125 10.233Z" fill="white"/>
<path d="M29.2722 9.77802C31.6151 9.77802 33.5145 7.78814 33.5145 5.33347C33.5145 2.87881 31.6151 0.888916 29.2722 0.888916C26.9292 0.888916 25.0298 2.87881 25.0298 5.33347C25.0298 7.78814 26.9292 9.77802 29.2722 9.77802Z" fill="white"/>
</svg>
