<svg width="118" height="115" viewBox="0 0 118 115" fill="none" xmlns="http://www.w3.org/2000/svg">
<path d="M62.8172 83.1943C65.9914 83.1946 68.5417 85.6656 68.5418 88.6865C68.5418 91.7075 65.9915 94.1785 62.8172 94.1787C59.6427 94.1787 57.0916 91.7077 57.0916 88.6865C57.0917 85.6654 59.6428 83.1943 62.8172 83.1943ZM62.9764 84.7109C62.45 84.7109 61.9216 84.9196 61.5447 85.2969C61.1679 85.6741 60.9598 86.2031 60.9598 86.7295V90.5645C60.9599 91.6789 61.8618 92.582 62.9764 92.582C63.5496 92.582 64.036 92.3685 64.408 91.9961C64.7846 91.6189 64.9929 91.0907 64.993 90.5645V86.7295C64.993 85.6149 64.091 84.7109 62.9764 84.7109Z" fill="black" stroke="black"/>
<mask id="path-2-inside-1_814_1567" fill="white">
<path d="M38.7939 51.0552C37.7165 49.6969 36.639 48.3386 35.5616 47.0203C35.402 46.8206 35.2424 46.7806 35.0428 46.8206C34.5241 46.9804 34.0053 46.8206 33.4865 46.7407C30.8927 46.2613 28.2989 45.8219 25.7051 45.1827C25.2662 45.0628 24.9469 45.3425 24.907 45.7819C24.8671 46.461 25.1464 47.0603 25.3859 47.6595C25.4657 47.8193 25.5854 47.8992 25.745 47.8593C26.583 47.8193 27.421 48.059 28.1792 48.2587C30.0148 48.6982 31.7706 49.5371 33.5664 50.0564C35.2823 50.5358 36.9982 50.8554 38.8338 51.2948C38.8737 51.2149 38.8338 51.1351 38.7939 51.0552ZM59.3447 58.4057C59.3048 58.0861 59.1452 57.9663 58.8658 57.8864C56.0725 57.2872 53.2392 56.6879 50.4459 56.0887C48.8896 55.7292 47.3333 55.4096 45.8968 55.1299C45.6174 55.09 45.4578 55.0101 45.4977 55.2098C45.6573 55.7691 45.378 56.3284 45.9367 56.8477C47.9319 58.6454 49.8872 60.4831 51.8825 62.3607C53.2392 63.639 54.596 64.8774 55.9528 66.1558C56.1523 66.3156 56.272 66.4354 56.5513 66.2756C57.6288 65.5565 58.7461 64.8375 59.8634 64.1184C60.0231 64.0385 60.1428 63.9187 60.1029 63.679C59.8235 61.9212 59.5841 60.1635 59.3447 58.4057ZM62.138 80.0979C61.8188 77.661 61.5394 75.2242 61.2202 72.8272C60.901 70.4703 60.5817 68.1532 60.3024 65.8362C60.2625 65.3968 60.1029 65.4367 59.8235 65.6365C58.9456 66.1957 58.1076 66.795 57.2297 67.3143C56.8706 67.554 56.7908 67.8336 56.8706 68.1932C57.3095 70.5501 57.7086 72.9071 58.1076 75.2641C58.4269 77.1417 58.7461 79.0193 59.1053 80.8969C59.1452 81.1366 59.1851 81.3363 59.5442 81.1765C60.3024 80.8569 61.0606 80.5773 61.8587 80.4574C62.138 80.4175 62.2178 80.2976 62.138 80.0979ZM67.4453 58.8052C65.8492 58.6854 64.253 58.5655 62.6568 58.4856C62.0981 58.4457 61.5793 58.4057 61.0606 58.3658C60.8212 58.3658 60.6216 58.3658 60.7014 58.6854C60.901 60.1635 61.0606 61.6016 61.2601 63.1596C63.4549 61.6815 65.5698 60.3233 67.8045 58.8851C67.5651 58.8452 67.4853 58.8452 67.4453 58.8052ZM68.0838 60.2034C66.1684 61.4418 64.2929 62.7202 62.3774 63.9187C61.6991 64.3581 61.3798 64.7176 61.5394 65.5965C61.9385 67.9535 62.1779 70.3105 62.4972 72.6674C62.7765 74.7448 63.0558 76.8221 63.2953 78.8994C63.4549 80.4175 63.4549 80.4175 64.9313 80.6572C65.1708 80.6971 65.2905 80.6572 65.3304 80.3775C65.5299 79.0592 65.7693 77.701 65.9689 76.3827C66.4477 73.3865 66.9266 70.3904 67.4054 67.4341C67.8045 64.9573 68.2035 62.5204 68.6026 59.9637C68.3632 60.0436 68.2434 60.1235 68.0838 60.2034ZM80.6538 44.144C73.87 42.5061 67.1261 40.8682 60.3423 39.1902C51.0445 36.9131 41.7866 34.6361 32.4889 32.3989C31.0124 32.0394 29.536 31.6798 28.0196 31.3203C27.8999 31.2804 27.7004 31.0806 27.6205 31.3603C27.5008 31.9595 27.0619 32.3989 26.8224 32.9582C26.583 33.5175 26.4234 34.0768 26.6628 34.5562C27.1417 35.475 27.4609 36.4737 27.421 37.4325C27.3811 38.7108 28.0994 38.7108 28.9374 38.9106C31.0524 39.3101 33.0476 39.7894 34.9231 40.7484C35.7611 41.1878 36.7188 41.3876 37.5967 41.7471C38.5944 42.1865 39.2727 42.9056 39.3925 44.0641C39.5122 45.5822 38.754 46.501 37.1179 46.9404C37.1977 47.0603 37.1977 47.1002 37.2376 47.1801C38.5145 48.7781 39.7915 50.376 41.0284 51.974C41.2678 52.2936 41.5871 52.4534 41.9462 52.5333C42.9039 52.7729 43.9015 52.773 44.6198 53.5719C44.6996 53.6518 44.8592 53.6518 45.0189 53.6918C49.3286 54.6106 53.5984 55.5294 57.9081 56.4482C59.225 56.7279 60.5418 57.1274 61.9385 57.2472C64.253 57.407 66.5674 57.5268 68.9218 57.6866C69.281 57.7266 69.6401 57.6866 70.0392 57.6067C72.7527 56.8078 75.4662 56.0487 78.1398 55.2498C78.06 54.8503 78.06 54.4907 78.0201 54.0913C77.9403 52.1737 78.3394 50.2961 78.898 48.4585C79.337 46.9404 79.9355 45.5023 80.6538 44.144ZM56.6312 3.23633C28.6581 3.23633 5.47339 23.9697 1.72234 50.9353C2.2411 50.416 2.71996 49.8567 3.15891 49.2575C3.95701 48.2188 4.79501 47.26 5.71282 46.3012C5.91234 46.1015 6.07196 45.8219 6.31139 45.6221C6.63063 45.3025 6.67054 45.1827 7.26911 44.903C7.34892 44.8631 7.46863 44.7832 7.62825 44.7432C7.66815 44.6234 7.86768 44.5835 7.94749 44.5036C8.9052 43.6247 9.98263 43.0254 11.0601 42.3863C12.776 41.3876 14.2524 40.1092 15.2102 38.3113C15.4895 37.7521 15.8885 37.1928 16.3674 36.7933C17.1256 36.1541 17.804 35.3951 18.6021 34.7159C20.4776 33.1979 21.156 31.2404 20.6771 28.8435C20.4776 27.8448 20.1583 26.886 20.1983 25.8473C20.2382 24.8886 20.8367 23.9298 21.7146 23.6102C22.5526 23.2507 23.1911 23.2906 23.9892 23.9697C25.745 25.4478 26.583 27.4053 27.3013 29.4427C27.4609 29.8821 27.7403 29.8821 28.0595 30.002C33.0476 31.2005 38.0357 32.4389 43.0635 33.6373C51.0844 35.5948 59.1452 37.5523 67.2059 39.5497C71.9147 40.7084 76.6234 41.827 81.3322 43.0254C82.0106 41.9868 82.7688 41.028 83.6866 40.1891C87.5174 36.5935 93.1041 35.475 97.1744 32.1992C97.6533 31.8396 98.0922 31.4401 98.3715 30.9208C98.7307 30.3615 98.8903 29.6824 99.4091 29.243C100.167 28.6038 101.404 28.8435 102.123 29.5226C102.841 30.2417 103.04 31.2804 103.04 32.2791C103.04 34.2765 102.163 36.3139 100.726 37.7121C100.207 38.2314 99.6086 38.6709 99.2894 39.3101C99.01 39.9093 99.0499 40.5886 98.9302 41.2278C98.8504 41.8669 98.5312 42.5461 97.9326 42.7858C98.611 42.9456 99.3293 42.8657 99.9677 42.9855C101.843 43.385 102.841 45.4623 104.437 46.5409C105.634 47.3399 107.35 47.7794 107.749 49.1376C107.989 49.8966 107.709 50.7356 107.31 51.3747C106.911 52.1338 106.353 52.8528 105.515 53.1325C104.317 53.532 103.001 52.8129 101.963 52.0938C100.925 51.3747 99.7682 50.4959 98.4913 50.5758C98.2917 50.5758 98.1321 50.6157 97.9725 50.7356C97.5335 51.0152 97.5735 51.7742 97.8927 52.2137C98.5312 53.1724 99.8081 53.492 100.806 54.0913C101.524 54.4907 102.202 55.05 102.801 55.6093C103.12 55.889 103.439 56.1686 103.759 56.4482C105.395 57.8864 107.071 59.3645 108.707 60.8426C109.625 61.6815 110.582 62.6003 110.782 63.7988C111.021 65.4367 109.465 67.1545 107.789 66.9548C106.911 66.8749 106.113 66.3555 105.395 65.8362C103.08 64.1983 100.846 62.4405 98.7706 60.523C98.8504 61.9212 98.6908 62.2009 99.6485 63.1197C100.646 63.9986 101.843 64.7176 102.801 65.5965C103.12 65.9161 105.594 67.8736 105.674 68.313C105.794 68.8324 106.233 69.871 105.993 70.3904C105.475 71.469 104.118 72.6674 102.921 72.4277C101.843 72.228 100.726 71.2293 98.4115 69.8311L94.5407 67.6738C96.0172 68.9122 98.1321 70.5901 98.2917 70.7898C98.4115 70.9496 98.5711 71.1094 98.6509 71.2692C98.8903 71.7087 98.6509 72.2679 98.4115 72.7074C98.172 73.1868 97.8927 73.7061 97.3739 73.9458C97.0946 74.0656 96.8153 74.0656 96.5359 74.0656C95.7777 74.0257 95.0195 73.746 94.3811 73.3066C93.5032 72.7074 92.9445 71.7486 92.1863 70.9896C91.2286 69.9909 89.9516 69.3517 88.954 68.353C88.2756 67.6738 87.7569 66.8749 87.0785 66.2357C86.3602 65.5166 85.5222 64.9973 84.6842 64.398C82.8087 63.0398 81.1726 61.3619 79.8158 59.5243L79.736 59.4444C79.0177 58.6055 78.499 57.6467 78.1398 56.5681C75.546 57.3271 72.9522 58.0462 70.3185 58.8052C69.9593 58.8851 69.7598 59.0449 69.7199 59.4843C68.9617 64.3181 68.1636 69.1519 67.4054 73.9857C67.0463 76.2628 66.6872 78.4999 66.2881 80.777C66.2083 81.1366 66.328 81.2964 66.6473 81.4162C67.8045 81.9755 68.6824 82.8544 69.4805 83.8531C71.5954 86.5296 71.3959 91.0439 69.5603 93.6405C67.0862 97.1161 62.8962 97.8751 59.9033 96.8364C56.6312 95.6779 54.3566 92.6818 54.3167 89.2462C54.2768 86.4897 55.3542 84.2526 57.4692 82.5348C57.7086 82.335 57.7884 82.2152 57.7485 81.8556C56.9504 77.3015 56.1523 72.7074 55.3542 68.1133C55.3143 67.7937 55.1547 67.554 54.9153 67.3542C51.6431 64.3181 48.3709 61.282 45.1386 58.206C44.8193 57.9263 44.6198 57.8065 44.2607 58.166C43.7419 58.7253 43.0236 58.8052 42.2654 58.6854C40.4697 58.3658 38.6742 57.8864 36.9184 57.5668C34.0452 57.0075 31.1322 56.608 28.259 56.2884C26.7027 56.1286 25.2263 55.6892 23.8296 55.0101C23.3108 54.7704 22.9118 54.9302 22.5526 55.1699C22.3132 55.3297 22.393 55.7292 22.6324 55.9289C23.8296 56.7279 24.6676 57.8464 25.5854 58.9251C25.8647 59.2846 26.3037 59.4444 26.7426 59.5642C29.2965 60.4431 31.7307 61.5617 34.3644 62.2408C35.4419 62.4805 36.4794 62.8001 37.5169 63.1197C39.153 63.639 39.7915 64.6777 39.6718 66.3955C39.6718 66.5952 39.592 66.795 39.4723 66.9148C38.9535 67.514 37.8761 68.2731 36.7587 67.9135C35.7212 67.554 34.564 67.554 33.4865 67.2743C30.8528 66.6751 28.2191 65.996 25.6253 65.1571C25.0267 64.9573 24.3484 64.8774 23.7099 64.7176C22.4728 64.438 21.3555 63.7988 20.3978 62.9998C20.1983 62.84 19.9588 62.6802 19.7593 62.5204C19.7194 62.5604 19.6795 62.5604 19.6396 62.6003C20.2781 63.7589 20.5574 64.9973 20.9165 66.2756C20.9963 66.5153 21.156 66.6751 21.3555 66.755C22.2733 67.1545 23.1113 67.6339 23.7897 68.353C23.9493 68.5128 24.1887 68.4728 24.3883 68.5128C25.5854 68.8324 26.8224 68.6726 28.0595 68.8324C29.1369 68.9522 30.0946 69.3117 30.7331 70.2705C31.2519 71.0695 31.0923 71.9084 30.3341 72.4677C30.0946 72.6674 29.8552 72.6674 29.5759 72.6674C27.9797 72.5875 26.3835 72.9471 24.7873 72.9071C23.9892 72.9071 23.1911 72.7473 22.4728 72.4277C20.9165 71.7486 19.3603 71.0695 17.7641 70.3904C17.1655 70.1107 16.7265 69.7112 16.4472 69.112C15.7289 67.7537 15.0505 66.3555 14.4919 64.9174C14.2125 64.2382 13.9731 64.1983 13.4543 64.6777C9.7033 65.7163 6.87006 66.9148 6.87006 66.9148C6.87006 66.9148 6.75034 66.9548 6.43111 66.9947C5.99215 67.0746 5.23396 67.2743 3.99691 67.514C3.19882 67.9135 2.48053 68.1532 1.68243 68.313C8.58596 91.2836 31.3716 114.174 56.5913 114.174C87.2381 114.174 112.099 89.3261 112.099 58.6854C112.099 28.0445 87.278 3.23633 56.6312 3.23633ZM80.6538 44.144C73.87 42.5061 67.1261 40.8682 60.3423 39.1902C51.0445 36.9131 41.7866 34.6361 32.4889 32.3989C31.0124 32.0394 29.536 31.6798 28.0196 31.3203C27.8999 31.2804 27.7004 31.0806 27.6205 31.3603C27.5008 31.9595 27.0619 32.3989 26.8224 32.9582C26.583 33.5175 26.4234 34.0768 26.6628 34.5562C27.1417 35.475 27.4609 36.4737 27.421 37.4325C27.3811 38.7108 28.0994 38.7108 28.9374 38.9106C31.0524 39.3101 33.0476 39.7894 34.9231 40.7484C35.7611 41.1878 36.7188 41.3876 37.5967 41.7471C38.5944 42.1865 39.2727 42.9056 39.3925 44.0641C39.5122 45.5822 38.754 46.501 37.1179 46.9404C37.1977 47.0603 37.1977 47.1002 37.2376 47.1801C38.5145 48.7781 39.7915 50.376 41.0284 51.974C41.2678 52.2936 41.5871 52.4534 41.9462 52.5333C42.9039 52.7729 43.9015 52.773 44.6198 53.5719C44.6996 53.6518 44.8592 53.6518 45.0189 53.6918C49.3286 54.6106 53.5984 55.5294 57.9081 56.4482C59.225 56.7279 60.5418 57.1274 61.9385 57.2472C64.253 57.407 66.5674 57.5268 68.9218 57.6866C69.281 57.7266 69.6401 57.6866 70.0392 57.6067C72.7527 56.8078 75.4662 56.0487 78.1398 55.2498C78.06 54.8503 78.06 54.4907 78.0201 54.0913C77.9403 52.1737 78.3394 50.2961 78.898 48.4585C79.337 46.9404 79.9355 45.5023 80.6538 44.144ZM68.0838 60.2034C66.1684 61.4418 64.2929 62.7202 62.3774 63.9187C61.6991 64.3581 61.3798 64.7176 61.5394 65.5965C61.9385 67.9535 62.1779 70.3105 62.4972 72.6674C62.7765 74.7448 63.0558 76.8221 63.2953 78.8994C63.4549 80.4175 63.4549 80.4175 64.9313 80.6572C65.1708 80.6971 65.2905 80.6572 65.3304 80.3775C65.5299 79.0592 65.7693 77.701 65.9689 76.3827C66.4477 73.3865 66.9266 70.3904 67.4054 67.4341C67.8045 64.9573 68.2035 62.5204 68.6026 59.9637C68.3632 60.0436 68.2434 60.1235 68.0838 60.2034ZM67.4453 58.8052C65.8492 58.6854 64.253 58.5655 62.6568 58.4856C62.0981 58.4457 61.5793 58.4057 61.0606 58.3658C60.8212 58.3658 60.6216 58.3658 60.7014 58.6854C60.901 60.1635 61.0606 61.6016 61.2601 63.1596C63.4549 61.6815 65.5698 60.3233 67.8045 58.8851C67.5651 58.8452 67.4853 58.8452 67.4453 58.8052ZM62.138 80.0979C61.8188 77.661 61.5394 75.2242 61.2202 72.8272C60.901 70.4703 60.5817 68.1532 60.3024 65.8362C60.2625 65.3968 60.1029 65.4367 59.8235 65.6365C58.9456 66.1957 58.1076 66.795 57.2297 67.3143C56.8706 67.554 56.7908 67.8336 56.8706 68.1932C57.3095 70.5501 57.7086 72.9071 58.1076 75.2641C58.4269 77.1417 58.7461 79.0193 59.1053 80.8969C59.1452 81.1366 59.1851 81.3363 59.5442 81.1765C60.3024 80.8569 61.0606 80.5773 61.8587 80.4574C62.138 80.4175 62.2178 80.2976 62.138 80.0979ZM59.3447 58.4057C59.3048 58.0861 59.1452 57.9663 58.8658 57.8864C56.0725 57.2872 53.2392 56.6879 50.4459 56.0887C48.8896 55.7292 47.3333 55.4096 45.8968 55.1299C45.6174 55.09 45.4578 55.0101 45.4977 55.2098C45.6573 55.7691 45.378 56.3284 45.9367 56.8477C47.9319 58.6454 49.8872 60.4831 51.8825 62.3607C53.2392 63.639 54.596 64.8774 55.9528 66.1558C56.1523 66.3156 56.272 66.4354 56.5513 66.2756C57.6288 65.5565 58.7461 64.8375 59.8634 64.1184C60.0231 64.0385 60.1428 63.9187 60.1029 63.679C59.8235 61.9212 59.5841 60.1635 59.3447 58.4057ZM38.7939 51.0552C37.7165 49.6969 36.639 48.3386 35.5616 47.0203C35.402 46.8206 35.2424 46.7806 35.0428 46.8206C34.5241 46.9804 34.0053 46.8206 33.4865 46.7407C30.8927 46.2613 28.2989 45.8219 25.7051 45.1827C25.2662 45.0628 24.9469 45.3425 24.907 45.7819C24.8671 46.461 25.1464 47.0603 25.3859 47.6595C25.4657 47.8193 25.5854 47.8992 25.745 47.8593C26.583 47.8193 27.421 48.059 28.1792 48.2587C30.0148 48.6982 31.7706 49.5371 33.5664 50.0564C35.2823 50.5358 36.9982 50.8554 38.8338 51.2948C38.8737 51.2149 38.8338 51.1351 38.7939 51.0552ZM80.6538 44.144C73.87 42.5061 67.1261 40.8682 60.3423 39.1902C51.0445 36.9131 41.7866 34.6361 32.4889 32.3989C31.0124 32.0394 29.536 31.6798 28.0196 31.3203C27.8999 31.2804 27.7004 31.0806 27.6205 31.3603C27.5008 31.9595 27.0619 32.3989 26.8224 32.9582C26.583 33.5175 26.4234 34.0768 26.6628 34.5562C27.1417 35.475 27.4609 36.4737 27.421 37.4325C27.3811 38.7108 28.0994 38.7108 28.9374 38.9106C31.0524 39.3101 33.0476 39.7894 34.9231 40.7484C35.7611 41.1878 36.7188 41.3876 37.5967 41.7471C38.5944 42.1865 39.2727 42.9056 39.3925 44.0641C39.5122 45.5822 38.754 46.501 37.1179 46.9404C37.1977 47.0603 37.1977 47.1002 37.2376 47.1801C38.5145 48.7781 39.7915 50.376 41.0284 51.974C41.2678 52.2936 41.5871 52.4534 41.9462 52.5333C42.9039 52.7729 43.9015 52.773 44.6198 53.5719C44.6996 53.6518 44.8592 53.6518 45.0189 53.6918C49.3286 54.6106 53.5984 55.5294 57.9081 56.4482C59.225 56.7279 60.5418 57.1274 61.9385 57.2472C64.253 57.407 66.5674 57.5268 68.9218 57.6866C69.281 57.7266 69.6401 57.6866 70.0392 57.6067C72.7527 56.8078 75.4662 56.0487 78.1398 55.2498C78.06 54.8503 78.06 54.4907 78.0201 54.0913C77.9403 52.1737 78.3394 50.2961 78.898 48.4585C79.337 46.9404 79.9355 45.5023 80.6538 44.144ZM68.0838 60.2034C66.1684 61.4418 64.2929 62.7202 62.3774 63.9187C61.6991 64.3581 61.3798 64.7176 61.5394 65.5965C61.9385 67.9535 62.1779 70.3105 62.4972 72.6674C62.7765 74.7448 63.0558 76.8221 63.2953 78.8994C63.4549 80.4175 63.4549 80.4175 64.9313 80.6572C65.1708 80.6971 65.2905 80.6572 65.3304 80.3775C65.5299 79.0592 65.7693 77.701 65.9689 76.3827C66.4477 73.3865 66.9266 70.3904 67.4054 67.4341C67.8045 64.9573 68.2035 62.5204 68.6026 59.9637C68.3632 60.0436 68.2434 60.1235 68.0838 60.2034ZM67.4453 58.8052C65.8492 58.6854 64.253 58.5655 62.6568 58.4856C62.0981 58.4457 61.5793 58.4057 61.0606 58.3658C60.8212 58.3658 60.6216 58.3658 60.7014 58.6854C60.901 60.1635 61.0606 61.6016 61.2601 63.1596C63.4549 61.6815 65.5698 60.3233 67.8045 58.8851C67.5651 58.8452 67.4853 58.8452 67.4453 58.8052ZM62.138 80.0979C61.8188 77.661 61.5394 75.2242 61.2202 72.8272C60.901 70.4703 60.5817 68.1532 60.3024 65.8362C60.2625 65.3968 60.1029 65.4367 59.8235 65.6365C58.9456 66.1957 58.1076 66.795 57.2297 67.3143C56.8706 67.554 56.7908 67.8336 56.8706 68.1932C57.3095 70.5501 57.7086 72.9071 58.1076 75.2641C58.4269 77.1417 58.7461 79.0193 59.1053 80.8969C59.1452 81.1366 59.1851 81.3363 59.5442 81.1765C60.3024 80.8569 61.0606 80.5773 61.8587 80.4574C62.138 80.4175 62.2178 80.2976 62.138 80.0979ZM59.3447 58.4057C59.3048 58.0861 59.1452 57.9663 58.8658 57.8864C56.0725 57.2872 53.2392 56.6879 50.4459 56.0887C48.8896 55.7292 47.3333 55.4096 45.8968 55.1299C45.6174 55.09 45.4578 55.0101 45.4977 55.2098C45.6573 55.7691 45.378 56.3284 45.9367 56.8477C47.9319 58.6454 49.8872 60.4831 51.8825 62.3607C53.2392 63.639 54.596 64.8774 55.9528 66.1558C56.1523 66.3156 56.272 66.4354 56.5513 66.2756C57.6288 65.5565 58.7461 64.8375 59.8634 64.1184C60.0231 64.0385 60.1428 63.9187 60.1029 63.679C59.8235 61.9212 59.5841 60.1635 59.3447 58.4057ZM38.7939 51.0552C37.7165 49.6969 36.639 48.3386 35.5616 47.0203C35.402 46.8206 35.2424 46.7806 35.0428 46.8206C34.5241 46.9804 34.0053 46.8206 33.4865 46.7407C30.8927 46.2613 28.2989 45.8219 25.7051 45.1827C25.2662 45.0628 24.9469 45.3425 24.907 45.7819C24.8671 46.461 25.1464 47.0603 25.3859 47.6595C25.4657 47.8193 25.5854 47.8992 25.745 47.8593C26.583 47.8193 27.421 48.059 28.1792 48.2587C30.0148 48.6982 31.7706 49.5371 33.5664 50.0564C35.2823 50.5358 36.9982 50.8554 38.8338 51.2948C38.8737 51.2149 38.8338 51.1351 38.7939 51.0552Z"/>
</mask>
<path d="M38.7939 51.0552C37.7165 49.6969 36.639 48.3386 35.5616 47.0203C35.402 46.8206 35.2424 46.7806 35.0428 46.8206C34.5241 46.9804 34.0053 46.8206 33.4865 46.7407C30.8927 46.2613 28.2989 45.8219 25.7051 45.1827C25.2662 45.0628 24.9469 45.3425 24.907 45.7819C24.8671 46.461 25.1464 47.0603 25.3859 47.6595C25.4657 47.8193 25.5854 47.8992 25.745 47.8593C26.583 47.8193 27.421 48.059 28.1792 48.2587C30.0148 48.6982 31.7706 49.5371 33.5664 50.0564C35.2823 50.5358 36.9982 50.8554 38.8338 51.2948C38.8737 51.2149 38.8338 51.1351 38.7939 51.0552ZM59.3447 58.4057C59.3048 58.0861 59.1452 57.9663 58.8658 57.8864C56.0725 57.2872 53.2392 56.6879 50.4459 56.0887C48.8896 55.7292 47.3333 55.4096 45.8968 55.1299C45.6174 55.09 45.4578 55.0101 45.4977 55.2098C45.6573 55.7691 45.378 56.3284 45.9367 56.8477C47.9319 58.6454 49.8872 60.4831 51.8825 62.3607C53.2392 63.639 54.596 64.8774 55.9528 66.1558C56.1523 66.3156 56.272 66.4354 56.5513 66.2756C57.6288 65.5565 58.7461 64.8375 59.8634 64.1184C60.0231 64.0385 60.1428 63.9187 60.1029 63.679C59.8235 61.9212 59.5841 60.1635 59.3447 58.4057ZM62.138 80.0979C61.8188 77.661 61.5394 75.2242 61.2202 72.8272C60.901 70.4703 60.5817 68.1532 60.3024 65.8362C60.2625 65.3968 60.1029 65.4367 59.8235 65.6365C58.9456 66.1957 58.1076 66.795 57.2297 67.3143C56.8706 67.554 56.7908 67.8336 56.8706 68.1932C57.3095 70.5501 57.7086 72.9071 58.1076 75.2641C58.4269 77.1417 58.7461 79.0193 59.1053 80.8969C59.1452 81.1366 59.1851 81.3363 59.5442 81.1765C60.3024 80.8569 61.0606 80.5773 61.8587 80.4574C62.138 80.4175 62.2178 80.2976 62.138 80.0979ZM67.4453 58.8052C65.8492 58.6854 64.253 58.5655 62.6568 58.4856C62.0981 58.4457 61.5793 58.4057 61.0606 58.3658C60.8212 58.3658 60.6216 58.3658 60.7014 58.6854C60.901 60.1635 61.0606 61.6016 61.2601 63.1596C63.4549 61.6815 65.5698 60.3233 67.8045 58.8851C67.5651 58.8452 67.4853 58.8452 67.4453 58.8052ZM68.0838 60.2034C66.1684 61.4418 64.2929 62.7202 62.3774 63.9187C61.6991 64.3581 61.3798 64.7176 61.5394 65.5965C61.9385 67.9535 62.1779 70.3105 62.4972 72.6674C62.7765 74.7448 63.0558 76.8221 63.2953 78.8994C63.4549 80.4175 63.4549 80.4175 64.9313 80.6572C65.1708 80.6971 65.2905 80.6572 65.3304 80.3775C65.5299 79.0592 65.7693 77.701 65.9689 76.3827C66.4477 73.3865 66.9266 70.3904 67.4054 67.4341C67.8045 64.9573 68.2035 62.5204 68.6026 59.9637C68.3632 60.0436 68.2434 60.1235 68.0838 60.2034ZM80.6538 44.144C73.87 42.5061 67.1261 40.8682 60.3423 39.1902C51.0445 36.9131 41.7866 34.6361 32.4889 32.3989C31.0124 32.0394 29.536 31.6798 28.0196 31.3203C27.8999 31.2804 27.7004 31.0806 27.6205 31.3603C27.5008 31.9595 27.0619 32.3989 26.8224 32.9582C26.583 33.5175 26.4234 34.0768 26.6628 34.5562C27.1417 35.475 27.4609 36.4737 27.421 37.4325C27.3811 38.7108 28.0994 38.7108 28.9374 38.9106C31.0524 39.3101 33.0476 39.7894 34.9231 40.7484C35.7611 41.1878 36.7188 41.3876 37.5967 41.7471C38.5944 42.1865 39.2727 42.9056 39.3925 44.0641C39.5122 45.5822 38.754 46.501 37.1179 46.9404C37.1977 47.0603 37.1977 47.1002 37.2376 47.1801C38.5145 48.7781 39.7915 50.376 41.0284 51.974C41.2678 52.2936 41.5871 52.4534 41.9462 52.5333C42.9039 52.7729 43.9015 52.773 44.6198 53.5719C44.6996 53.6518 44.8592 53.6518 45.0189 53.6918C49.3286 54.6106 53.5984 55.5294 57.9081 56.4482C59.225 56.7279 60.5418 57.1274 61.9385 57.2472C64.253 57.407 66.5674 57.5268 68.9218 57.6866C69.281 57.7266 69.6401 57.6866 70.0392 57.6067C72.7527 56.8078 75.4662 56.0487 78.1398 55.2498C78.06 54.8503 78.06 54.4907 78.0201 54.0913C77.9403 52.1737 78.3394 50.2961 78.898 48.4585C79.337 46.9404 79.9355 45.5023 80.6538 44.144ZM56.6312 3.23633C28.6581 3.23633 5.47339 23.9697 1.72234 50.9353C2.2411 50.416 2.71996 49.8567 3.15891 49.2575C3.95701 48.2188 4.79501 47.26 5.71282 46.3012C5.91234 46.1015 6.07196 45.8219 6.31139 45.6221C6.63063 45.3025 6.67054 45.1827 7.26911 44.903C7.34892 44.8631 7.46863 44.7832 7.62825 44.7432C7.66815 44.6234 7.86768 44.5835 7.94749 44.5036C8.9052 43.6247 9.98263 43.0254 11.0601 42.3863C12.776 41.3876 14.2524 40.1092 15.2102 38.3113C15.4895 37.7521 15.8885 37.1928 16.3674 36.7933C17.1256 36.1541 17.804 35.3951 18.6021 34.7159C20.4776 33.1979 21.156 31.2404 20.6771 28.8435C20.4776 27.8448 20.1583 26.886 20.1983 25.8473C20.2382 24.8886 20.8367 23.9298 21.7146 23.6102C22.5526 23.2507 23.1911 23.2906 23.9892 23.9697C25.745 25.4478 26.583 27.4053 27.3013 29.4427C27.4609 29.8821 27.7403 29.8821 28.0595 30.002C33.0476 31.2005 38.0357 32.4389 43.0635 33.6373C51.0844 35.5948 59.1452 37.5523 67.2059 39.5497C71.9147 40.7084 76.6234 41.827 81.3322 43.0254C82.0106 41.9868 82.7688 41.028 83.6866 40.1891C87.5174 36.5935 93.1041 35.475 97.1744 32.1992C97.6533 31.8396 98.0922 31.4401 98.3715 30.9208C98.7307 30.3615 98.8903 29.6824 99.4091 29.243C100.167 28.6038 101.404 28.8435 102.123 29.5226C102.841 30.2417 103.04 31.2804 103.04 32.2791C103.04 34.2765 102.163 36.3139 100.726 37.7121C100.207 38.2314 99.6086 38.6709 99.2894 39.3101C99.01 39.9093 99.0499 40.5886 98.9302 41.2278C98.8504 41.8669 98.5312 42.5461 97.9326 42.7858C98.611 42.9456 99.3293 42.8657 99.9677 42.9855C101.843 43.385 102.841 45.4623 104.437 46.5409C105.634 47.3399 107.35 47.7794 107.749 49.1376C107.989 49.8966 107.709 50.7356 107.31 51.3747C106.911 52.1338 106.353 52.8528 105.515 53.1325C104.317 53.532 103.001 52.8129 101.963 52.0938C100.925 51.3747 99.7682 50.4959 98.4913 50.5758C98.2917 50.5758 98.1321 50.6157 97.9725 50.7356C97.5335 51.0152 97.5735 51.7742 97.8927 52.2137C98.5312 53.1724 99.8081 53.492 100.806 54.0913C101.524 54.4907 102.202 55.05 102.801 55.6093C103.12 55.889 103.439 56.1686 103.759 56.4482C105.395 57.8864 107.071 59.3645 108.707 60.8426C109.625 61.6815 110.582 62.6003 110.782 63.7988C111.021 65.4367 109.465 67.1545 107.789 66.9548C106.911 66.8749 106.113 66.3555 105.395 65.8362C103.08 64.1983 100.846 62.4405 98.7706 60.523C98.8504 61.9212 98.6908 62.2009 99.6485 63.1197C100.646 63.9986 101.843 64.7176 102.801 65.5965C103.12 65.9161 105.594 67.8736 105.674 68.313C105.794 68.8324 106.233 69.871 105.993 70.3904C105.475 71.469 104.118 72.6674 102.921 72.4277C101.843 72.228 100.726 71.2293 98.4115 69.8311L94.5407 67.6738C96.0172 68.9122 98.1321 70.5901 98.2917 70.7898C98.4115 70.9496 98.5711 71.1094 98.6509 71.2692C98.8903 71.7087 98.6509 72.2679 98.4115 72.7074C98.172 73.1868 97.8927 73.7061 97.3739 73.9458C97.0946 74.0656 96.8153 74.0656 96.5359 74.0656C95.7777 74.0257 95.0195 73.746 94.3811 73.3066C93.5032 72.7074 92.9445 71.7486 92.1863 70.9896C91.2286 69.9909 89.9516 69.3517 88.954 68.353C88.2756 67.6738 87.7569 66.8749 87.0785 66.2357C86.3602 65.5166 85.5222 64.9973 84.6842 64.398C82.8087 63.0398 81.1726 61.3619 79.8158 59.5243L79.736 59.4444C79.0177 58.6055 78.499 57.6467 78.1398 56.5681C75.546 57.3271 72.9522 58.0462 70.3185 58.8052C69.9593 58.8851 69.7598 59.0449 69.7199 59.4843C68.9617 64.3181 68.1636 69.1519 67.4054 73.9857C67.0463 76.2628 66.6872 78.4999 66.2881 80.777C66.2083 81.1366 66.328 81.2964 66.6473 81.4162C67.8045 81.9755 68.6824 82.8544 69.4805 83.8531C71.5954 86.5296 71.3959 91.0439 69.5603 93.6405C67.0862 97.1161 62.8962 97.8751 59.9033 96.8364C56.6312 95.6779 54.3566 92.6818 54.3167 89.2462C54.2768 86.4897 55.3542 84.2526 57.4692 82.5348C57.7086 82.335 57.7884 82.2152 57.7485 81.8556C56.9504 77.3015 56.1523 72.7074 55.3542 68.1133C55.3143 67.7937 55.1547 67.554 54.9153 67.3542C51.6431 64.3181 48.3709 61.282 45.1386 58.206C44.8193 57.9263 44.6198 57.8065 44.2607 58.166C43.7419 58.7253 43.0236 58.8052 42.2654 58.6854C40.4697 58.3658 38.6742 57.8864 36.9184 57.5668C34.0452 57.0075 31.1322 56.608 28.259 56.2884C26.7027 56.1286 25.2263 55.6892 23.8296 55.0101C23.3108 54.7704 22.9118 54.9302 22.5526 55.1699C22.3132 55.3297 22.393 55.7292 22.6324 55.9289C23.8296 56.7279 24.6676 57.8464 25.5854 58.9251C25.8647 59.2846 26.3037 59.4444 26.7426 59.5642C29.2965 60.4431 31.7307 61.5617 34.3644 62.2408C35.4419 62.4805 36.4794 62.8001 37.5169 63.1197C39.153 63.639 39.7915 64.6777 39.6718 66.3955C39.6718 66.5952 39.592 66.795 39.4723 66.9148C38.9535 67.514 37.8761 68.2731 36.7587 67.9135C35.7212 67.554 34.564 67.554 33.4865 67.2743C30.8528 66.6751 28.2191 65.996 25.6253 65.1571C25.0267 64.9573 24.3484 64.8774 23.7099 64.7176C22.4728 64.438 21.3555 63.7988 20.3978 62.9998C20.1983 62.84 19.9588 62.6802 19.7593 62.5204C19.7194 62.5604 19.6795 62.5604 19.6396 62.6003C20.2781 63.7589 20.5574 64.9973 20.9165 66.2756C20.9963 66.5153 21.156 66.6751 21.3555 66.755C22.2733 67.1545 23.1113 67.6339 23.7897 68.353C23.9493 68.5128 24.1887 68.4728 24.3883 68.5128C25.5854 68.8324 26.8224 68.6726 28.0595 68.8324C29.1369 68.9522 30.0946 69.3117 30.7331 70.2705C31.2519 71.0695 31.0923 71.9084 30.3341 72.4677C30.0946 72.6674 29.8552 72.6674 29.5759 72.6674C27.9797 72.5875 26.3835 72.9471 24.7873 72.9071C23.9892 72.9071 23.1911 72.7473 22.4728 72.4277C20.9165 71.7486 19.3603 71.0695 17.7641 70.3904C17.1655 70.1107 16.7265 69.7112 16.4472 69.112C15.7289 67.7537 15.0505 66.3555 14.4919 64.9174C14.2125 64.2382 13.9731 64.1983 13.4543 64.6777C9.7033 65.7163 6.87006 66.9148 6.87006 66.9148C6.87006 66.9148 6.75034 66.9548 6.43111 66.9947C5.99215 67.0746 5.23396 67.2743 3.99691 67.514C3.19882 67.9135 2.48053 68.1532 1.68243 68.313C8.58596 91.2836 31.3716 114.174 56.5913 114.174C87.2381 114.174 112.099 89.3261 112.099 58.6854C112.099 28.0445 87.278 3.23633 56.6312 3.23633ZM80.6538 44.144C73.87 42.5061 67.1261 40.8682 60.3423 39.1902C51.0445 36.9131 41.7866 34.6361 32.4889 32.3989C31.0124 32.0394 29.536 31.6798 28.0196 31.3203C27.8999 31.2804 27.7004 31.0806 27.6205 31.3603C27.5008 31.9595 27.0619 32.3989 26.8224 32.9582C26.583 33.5175 26.4234 34.0768 26.6628 34.5562C27.1417 35.475 27.4609 36.4737 27.421 37.4325C27.3811 38.7108 28.0994 38.7108 28.9374 38.9106C31.0524 39.3101 33.0476 39.7894 34.9231 40.7484C35.7611 41.1878 36.7188 41.3876 37.5967 41.7471C38.5944 42.1865 39.2727 42.9056 39.3925 44.0641C39.5122 45.5822 38.754 46.501 37.1179 46.9404C37.1977 47.0603 37.1977 47.1002 37.2376 47.1801C38.5145 48.7781 39.7915 50.376 41.0284 51.974C41.2678 52.2936 41.5871 52.4534 41.9462 52.5333C42.9039 52.7729 43.9015 52.773 44.6198 53.5719C44.6996 53.6518 44.8592 53.6518 45.0189 53.6918C49.3286 54.6106 53.5984 55.5294 57.9081 56.4482C59.225 56.7279 60.5418 57.1274 61.9385 57.2472C64.253 57.407 66.5674 57.5268 68.9218 57.6866C69.281 57.7266 69.6401 57.6866 70.0392 57.6067C72.7527 56.8078 75.4662 56.0487 78.1398 55.2498C78.06 54.8503 78.06 54.4907 78.0201 54.0913C77.9403 52.1737 78.3394 50.2961 78.898 48.4585C79.337 46.9404 79.9355 45.5023 80.6538 44.144ZM68.0838 60.2034C66.1684 61.4418 64.2929 62.7202 62.3774 63.9187C61.6991 64.3581 61.3798 64.7176 61.5394 65.5965C61.9385 67.9535 62.1779 70.3105 62.4972 72.6674C62.7765 74.7448 63.0558 76.8221 63.2953 78.8994C63.4549 80.4175 63.4549 80.4175 64.9313 80.6572C65.1708 80.6971 65.2905 80.6572 65.3304 80.3775C65.5299 79.0592 65.7693 77.701 65.9689 76.3827C66.4477 73.3865 66.9266 70.3904 67.4054 67.4341C67.8045 64.9573 68.2035 62.5204 68.6026 59.9637C68.3632 60.0436 68.2434 60.1235 68.0838 60.2034ZM67.4453 58.8052C65.8492 58.6854 64.253 58.5655 62.6568 58.4856C62.0981 58.4457 61.5793 58.4057 61.0606 58.3658C60.8212 58.3658 60.6216 58.3658 60.7014 58.6854C60.901 60.1635 61.0606 61.6016 61.2601 63.1596C63.4549 61.6815 65.5698 60.3233 67.8045 58.8851C67.5651 58.8452 67.4853 58.8452 67.4453 58.8052ZM62.138 80.0979C61.8188 77.661 61.5394 75.2242 61.2202 72.8272C60.901 70.4703 60.5817 68.1532 60.3024 65.8362C60.2625 65.3968 60.1029 65.4367 59.8235 65.6365C58.9456 66.1957 58.1076 66.795 57.2297 67.3143C56.8706 67.554 56.7908 67.8336 56.8706 68.1932C57.3095 70.5501 57.7086 72.9071 58.1076 75.2641C58.4269 77.1417 58.7461 79.0193 59.1053 80.8969C59.1452 81.1366 59.1851 81.3363 59.5442 81.1765C60.3024 80.8569 61.0606 80.5773 61.8587 80.4574C62.138 80.4175 62.2178 80.2976 62.138 80.0979ZM59.3447 58.4057C59.3048 58.0861 59.1452 57.9663 58.8658 57.8864C56.0725 57.2872 53.2392 56.6879 50.4459 56.0887C48.8896 55.7292 47.3333 55.4096 45.8968 55.1299C45.6174 55.09 45.4578 55.0101 45.4977 55.2098C45.6573 55.7691 45.378 56.3284 45.9367 56.8477C47.9319 58.6454 49.8872 60.4831 51.8825 62.3607C53.2392 63.639 54.596 64.8774 55.9528 66.1558C56.1523 66.3156 56.272 66.4354 56.5513 66.2756C57.6288 65.5565 58.7461 64.8375 59.8634 64.1184C60.0231 64.0385 60.1428 63.9187 60.1029 63.679C59.8235 61.9212 59.5841 60.1635 59.3447 58.4057ZM38.7939 51.0552C37.7165 49.6969 36.639 48.3386 35.5616 47.0203C35.402 46.8206 35.2424 46.7806 35.0428 46.8206C34.5241 46.9804 34.0053 46.8206 33.4865 46.7407C30.8927 46.2613 28.2989 45.8219 25.7051 45.1827C25.2662 45.0628 24.9469 45.3425 24.907 45.7819C24.8671 46.461 25.1464 47.0603 25.3859 47.6595C25.4657 47.8193 25.5854 47.8992 25.745 47.8593C26.583 47.8193 27.421 48.059 28.1792 48.2587C30.0148 48.6982 31.7706 49.5371 33.5664 50.0564C35.2823 50.5358 36.9982 50.8554 38.8338 51.2948C38.8737 51.2149 38.8338 51.1351 38.7939 51.0552ZM80.6538 44.144C73.87 42.5061 67.1261 40.8682 60.3423 39.1902C51.0445 36.9131 41.7866 34.6361 32.4889 32.3989C31.0124 32.0394 29.536 31.6798 28.0196 31.3203C27.8999 31.2804 27.7004 31.0806 27.6205 31.3603C27.5008 31.9595 27.0619 32.3989 26.8224 32.9582C26.583 33.5175 26.4234 34.0768 26.6628 34.5562C27.1417 35.475 27.4609 36.4737 27.421 37.4325C27.3811 38.7108 28.0994 38.7108 28.9374 38.9106C31.0524 39.3101 33.0476 39.7894 34.9231 40.7484C35.7611 41.1878 36.7188 41.3876 37.5967 41.7471C38.5944 42.1865 39.2727 42.9056 39.3925 44.0641C39.5122 45.5822 38.754 46.501 37.1179 46.9404C37.1977 47.0603 37.1977 47.1002 37.2376 47.1801C38.5145 48.7781 39.7915 50.376 41.0284 51.974C41.2678 52.2936 41.5871 52.4534 41.9462 52.5333C42.9039 52.7729 43.9015 52.773 44.6198 53.5719C44.6996 53.6518 44.8592 53.6518 45.0189 53.6918C49.3286 54.6106 53.5984 55.5294 57.9081 56.4482C59.225 56.7279 60.5418 57.1274 61.9385 57.2472C64.253 57.407 66.5674 57.5268 68.9218 57.6866C69.281 57.7266 69.6401 57.6866 70.0392 57.6067C72.7527 56.8078 75.4662 56.0487 78.1398 55.2498C78.06 54.8503 78.06 54.4907 78.0201 54.0913C77.9403 52.1737 78.3394 50.2961 78.898 48.4585C79.337 46.9404 79.9355 45.5023 80.6538 44.144ZM68.0838 60.2034C66.1684 61.4418 64.2929 62.7202 62.3774 63.9187C61.6991 64.3581 61.3798 64.7176 61.5394 65.5965C61.9385 67.9535 62.1779 70.3105 62.4972 72.6674C62.7765 74.7448 63.0558 76.8221 63.2953 78.8994C63.4549 80.4175 63.4549 80.4175 64.9313 80.6572C65.1708 80.6971 65.2905 80.6572 65.3304 80.3775C65.5299 79.0592 65.7693 77.701 65.9689 76.3827C66.4477 73.3865 66.9266 70.3904 67.4054 67.4341C67.8045 64.9573 68.2035 62.5204 68.6026 59.9637C68.3632 60.0436 68.2434 60.1235 68.0838 60.2034ZM67.4453 58.8052C65.8492 58.6854 64.253 58.5655 62.6568 58.4856C62.0981 58.4457 61.5793 58.4057 61.0606 58.3658C60.8212 58.3658 60.6216 58.3658 60.7014 58.6854C60.901 60.1635 61.0606 61.6016 61.2601 63.1596C63.4549 61.6815 65.5698 60.3233 67.8045 58.8851C67.5651 58.8452 67.4853 58.8452 67.4453 58.8052ZM62.138 80.0979C61.8188 77.661 61.5394 75.2242 61.2202 72.8272C60.901 70.4703 60.5817 68.1532 60.3024 65.8362C60.2625 65.3968 60.1029 65.4367 59.8235 65.6365C58.9456 66.1957 58.1076 66.795 57.2297 67.3143C56.8706 67.554 56.7908 67.8336 56.8706 68.1932C57.3095 70.5501 57.7086 72.9071 58.1076 75.2641C58.4269 77.1417 58.7461 79.0193 59.1053 80.8969C59.1452 81.1366 59.1851 81.3363 59.5442 81.1765C60.3024 80.8569 61.0606 80.5773 61.8587 80.4574C62.138 80.4175 62.2178 80.2976 62.138 80.0979ZM59.3447 58.4057C59.3048 58.0861 59.1452 57.9663 58.8658 57.8864C56.0725 57.2872 53.2392 56.6879 50.4459 56.0887C48.8896 55.7292 47.3333 55.4096 45.8968 55.1299C45.6174 55.09 45.4578 55.0101 45.4977 55.2098C45.6573 55.7691 45.378 56.3284 45.9367 56.8477C47.9319 58.6454 49.8872 60.4831 51.8825 62.3607C53.2392 63.639 54.596 64.8774 55.9528 66.1558C56.1523 66.3156 56.272 66.4354 56.5513 66.2756C57.6288 65.5565 58.7461 64.8375 59.8634 64.1184C60.0231 64.0385 60.1428 63.9187 60.1029 63.679C59.8235 61.9212 59.5841 60.1635 59.3447 58.4057ZM38.7939 51.0552C37.7165 49.6969 36.639 48.3386 35.5616 47.0203C35.402 46.8206 35.2424 46.7806 35.0428 46.8206C34.5241 46.9804 34.0053 46.8206 33.4865 46.7407C30.8927 46.2613 28.2989 45.8219 25.7051 45.1827C25.2662 45.0628 24.9469 45.3425 24.907 45.7819C24.8671 46.461 25.1464 47.0603 25.3859 47.6595C25.4657 47.8193 25.5854 47.8992 25.745 47.8593C26.583 47.8193 27.421 48.059 28.1792 48.2587C30.0148 48.6982 31.7706 49.5371 33.5664 50.0564C35.2823 50.5358 36.9982 50.8554 38.8338 51.2948C38.8737 51.2149 38.8338 51.1351 38.7939 51.0552Z" fill="black" stroke="black" stroke-width="2" mask="url(#path-2-inside-1_814_1567)"/>
<path d="M58.7473 0.5C90.7232 0.500168 116.667 25.9323 116.667 57.3262C116.667 88.7202 90.7233 114.153 58.7473 114.153C26.7316 114.153 0.826431 88.7205 0.826431 57.3262C0.826597 25.932 26.7317 0.5 58.7473 0.5ZM58.7473 4.77344C33.5776 4.77344 12.4665 21.8275 6.7444 44.8213C5.73676 48.8164 5.21317 53.0118 5.21315 57.3262C5.21315 60.6299 5.49498 63.8573 6.09987 67.0068V67.0078C10.7343 91.4149 32.5715 109.88 58.7473 109.88C88.3045 109.88 112.281 86.3742 112.281 57.3262C112.28 28.2783 88.3044 4.77361 58.7473 4.77344Z" fill="black" stroke="black"/>
</svg>
