<svg width="620" height="115" viewBox="0 0 620 115" fill="none" xmlns="http://www.w3.org/2000/svg">
<path d="M62.6796 83.4443C65.8644 83.4444 68.4238 85.9239 68.4238 88.9551C68.4236 91.9861 65.8643 94.4648 62.6796 94.4648C59.4949 94.4648 56.9356 91.9861 56.9355 88.9551C56.9355 85.9239 59.4948 83.4443 62.6796 83.4443ZM62.8398 84.9688C62.3124 84.9688 61.7829 85.1777 61.4052 85.5557C61.0276 85.9337 60.8183 86.4636 60.8183 86.9912V90.8379C60.8183 91.955 61.7226 92.8604 62.8398 92.8604C63.4143 92.8603 63.9016 92.6466 64.2744 92.2734C64.652 91.8953 64.8603 91.3655 64.8603 90.8379V86.9912C64.8602 85.8743 63.9568 84.9689 62.8398 84.9688Z" fill="black" stroke="black"/>
<mask id="path-2-inside-1_819_1586" fill="white">
<path d="M38.5839 51.2097C37.5032 49.8473 36.4225 48.4849 35.3418 47.1626C35.1817 46.9623 35.0216 46.9222 34.8215 46.9623C34.3011 47.1226 33.7808 46.9623 33.2605 46.8821C30.6588 46.4013 28.0572 45.9605 25.4555 45.3194C25.0152 45.1992 24.695 45.4797 24.655 45.9205C24.615 46.6016 24.8951 47.2027 25.1353 47.8037C25.2153 47.964 25.3354 48.0442 25.4955 48.0041C26.3361 47.964 27.1766 48.2044 27.9371 48.4048C29.7783 48.8456 31.5394 49.687 33.3405 50.2079C35.0616 50.6888 36.7827 51.0093 38.6239 51.4501C38.6639 51.3699 38.6239 51.2898 38.5839 51.2097ZM59.1969 58.5825C59.1569 58.2619 58.9968 58.1417 58.7166 58.0616C55.9148 57.4605 53.073 56.8595 50.2712 56.2584C48.7102 55.8978 47.1492 55.5773 45.7083 55.2968C45.4281 55.2567 45.268 55.1766 45.308 55.3769C45.4681 55.9379 45.1879 56.4989 45.7483 57.0198C47.7496 58.8229 49.7108 60.6661 51.7121 62.5494C53.073 63.8316 54.4338 65.0738 55.7947 66.356C55.9948 66.5163 56.1149 66.6365 56.3951 66.4762C57.4758 65.755 58.5965 65.0337 59.7172 64.3124C59.8773 64.2323 59.9974 64.1121 59.9574 63.8717C59.6772 62.1086 59.437 60.3455 59.1969 58.5825ZM61.9987 80.3403C61.6785 77.8961 61.3983 75.4518 61.0781 73.0476C60.7579 70.6835 60.4377 68.3595 60.1575 66.0354C60.1175 65.5947 59.9574 65.6348 59.6772 65.8351C58.7966 66.3961 57.9561 66.9971 57.0755 67.518C56.7153 67.7584 56.6353 68.0389 56.7153 68.3996C57.1556 70.7637 57.5558 73.1278 57.9561 75.4919C58.2763 77.3752 58.5965 79.2584 58.9567 81.1417C58.9968 81.3821 59.0368 81.5825 59.397 81.4222C60.1575 81.1016 60.918 80.8212 61.7185 80.7009C61.9987 80.6609 62.0787 80.5407 61.9987 80.3403ZM67.3221 58.9832C65.7211 58.863 64.12 58.7428 62.519 58.6626C61.9587 58.6226 61.4383 58.5825 60.918 58.5424C60.6778 58.5424 60.4777 58.5424 60.5578 58.863C60.7579 60.3455 60.918 61.7881 61.1181 63.3508C63.3195 61.8682 65.4409 60.5058 67.6823 59.0633C67.4422 59.0232 67.3621 59.0232 67.3221 58.9832ZM67.9625 60.3856C66.0413 61.6278 64.1601 62.91 62.2388 64.1121C61.5584 64.5529 61.2382 64.9135 61.3983 65.795C61.7985 68.1591 62.0387 70.5232 62.3589 72.8874C62.6391 74.971 62.9193 77.0546 63.1594 79.1382C63.3195 80.6609 63.3195 80.6609 64.8005 80.9013C65.0406 80.9414 65.1607 80.9013 65.2007 80.6208C65.4008 79.2985 65.641 77.9361 65.8411 76.6138C66.3214 73.6086 66.8017 70.6034 67.2821 67.6382C67.6823 65.1539 68.0826 62.7097 68.4828 60.1452C68.2427 60.2253 68.1226 60.3055 67.9625 60.3856ZM80.5705 44.2776C73.7662 42.6348 67.0019 40.9919 60.1975 39.3088C50.8716 37.0248 41.5856 34.7409 32.2598 32.497C30.7789 32.1363 29.298 31.7757 27.777 31.4151C27.6569 31.375 27.4568 31.1747 27.3767 31.4551C27.2566 32.0562 26.8164 32.497 26.5762 33.0579C26.3361 33.6189 26.176 34.1799 26.4161 34.6607C26.8964 35.5823 27.2166 36.5841 27.1766 37.5457C27.1366 38.828 27.857 38.828 28.6976 39.0283C30.8189 39.429 32.8202 39.9099 34.7014 40.8717C35.5419 41.3125 36.5026 41.5128 37.3831 41.8734C38.3838 42.3142 39.0642 43.0354 39.1843 44.1975C39.3043 45.7201 38.5439 46.6417 36.9028 47.0825C36.9829 47.2027 36.9829 47.2428 37.0229 47.3229C38.3037 48.9257 39.5845 50.5285 40.8252 52.1313C41.0653 52.4518 41.3855 52.6121 41.7457 52.6922C42.7064 52.9327 43.707 52.9327 44.4275 53.7341C44.5075 53.8142 44.6676 53.8142 44.8277 53.8543C49.1505 54.7759 53.4332 55.6975 57.756 56.6191C59.0768 56.8996 60.3977 57.3003 61.7985 57.4205C64.12 57.5807 66.4415 57.7009 68.803 57.8612C69.1633 57.9013 69.5235 57.8612 69.9237 57.7811C72.6455 56.9797 75.3672 56.2184 78.0489 55.417C77.9689 55.0163 77.9689 54.6557 77.9289 54.255C77.8488 52.3316 78.2491 50.4483 78.8094 48.6051C79.2497 47.0825 79.8501 45.64 80.5705 44.2776ZM56.4752 3.24609C28.4174 3.24609 5.16254 24.0423 1.40013 51.0895C1.92047 50.5685 2.40077 50.0076 2.84105 49.4065C3.64156 48.3647 4.48211 47.403 5.40269 46.4414C5.60282 46.241 5.76292 45.9605 6.00308 45.7602C6.32328 45.4396 6.36331 45.3194 6.96369 45.0389C7.04374 44.9989 7.16382 44.9187 7.32392 44.8787C7.36395 44.7584 7.56407 44.7184 7.64413 44.6382C8.60474 43.7567 9.68543 43.1557 10.7661 42.5145C12.4872 41.5128 13.9682 40.2306 14.9288 38.4273C15.209 37.8663 15.6092 37.3053 16.0895 36.9046C16.85 36.2635 17.5304 35.5022 18.3309 34.821C20.2122 33.2984 20.8926 31.3349 20.4123 28.9308C20.2122 27.929 19.8919 26.9673 19.932 25.9255C19.972 24.9639 20.5724 24.0022 21.4529 23.6816C22.2935 23.321 22.9339 23.3611 23.7344 24.0423C25.4955 25.5248 26.3361 27.4882 27.0565 29.5318C27.2166 29.9726 27.4968 29.9726 27.817 30.0928C32.8202 31.2949 37.8234 32.537 42.8665 33.7391C50.9116 35.7025 58.9968 37.666 67.0819 39.6694C71.8049 40.8316 76.528 41.9536 81.251 43.1557C81.9314 42.1138 82.6919 41.1522 83.6125 40.3107C87.4549 36.7043 93.0585 35.5823 97.1411 32.2966C97.6214 31.936 98.0617 31.5353 98.3419 31.0144C98.7021 30.4534 98.8622 29.7722 99.3826 29.3315C100.143 28.6903 101.384 28.9308 102.104 29.6119C102.825 30.3332 103.025 31.375 103.025 32.3768C103.025 34.3802 102.144 36.4238 100.703 37.8262C100.183 38.3471 99.5827 38.7879 99.2625 39.429C98.9823 40.0301 99.0223 40.7114 98.9022 41.3525C98.8222 41.9936 98.502 42.6748 97.9016 42.9152C98.582 43.0755 99.3025 42.9954 99.9429 43.1156C101.824 43.5163 102.825 45.5999 104.426 46.6818C105.627 47.4832 107.348 47.9239 107.748 49.2863C107.988 50.0476 107.708 50.8891 107.308 51.5302C106.907 52.2915 106.347 53.0128 105.506 53.2933C104.306 53.694 102.985 52.9727 101.944 52.2515C100.904 51.5302 99.7428 50.6487 98.462 50.7288C98.2618 50.7288 98.1017 50.7689 97.9416 50.8891C97.5013 51.1696 97.5414 51.9309 97.8616 52.3717C98.502 53.3334 99.7828 53.6539 100.783 54.255C101.504 54.6557 102.184 55.2166 102.785 55.7776C103.105 56.0581 103.425 56.3386 103.745 56.6191C105.386 58.0616 107.067 59.5442 108.709 61.0267C109.629 61.8682 110.59 62.7898 110.79 63.9919C111.03 65.6347 109.469 67.3577 107.788 67.1574C106.907 67.0773 106.107 66.5564 105.386 66.0354C103.065 64.3926 100.823 62.6295 98.7421 60.7062C98.8222 62.1086 98.6621 62.3891 99.6227 63.3107C100.623 64.1922 101.824 64.9135 102.785 65.795C103.105 66.1156 105.587 68.079 105.667 68.5198C105.787 69.0407 106.227 70.0825 105.987 70.6034C105.466 71.6853 104.106 72.8874 102.905 72.6469C101.824 72.4466 100.703 71.4449 98.3819 70.0424L94.4994 67.8786C95.9804 69.1208 98.1017 70.8037 98.2618 71.0041C98.3819 71.1644 98.542 71.3246 98.6221 71.4849C98.8622 71.9257 98.6221 72.4867 98.3819 72.9274C98.1418 73.4083 97.8616 73.9292 97.3412 74.1696C97.0611 74.2898 96.7809 74.2898 96.5007 74.2898C95.7402 74.2497 94.9797 73.9692 94.3393 73.5285C93.4588 72.9274 92.8984 71.9658 92.1379 71.2044C91.1773 70.2027 89.8965 69.5616 88.8959 68.5598C88.2154 67.8787 87.6951 67.0773 87.0147 66.4361C86.2942 65.7149 85.4537 65.194 84.6131 64.5929C82.7319 63.2306 81.0909 61.5476 79.73 59.7044L79.65 59.6243C78.9295 58.7828 78.4092 57.8212 78.0489 56.7393C75.4473 57.5006 72.8456 58.2219 70.2039 58.9832C69.8437 59.0633 69.6436 59.2236 69.6035 59.6644C68.843 64.5128 68.0425 69.3612 67.2821 74.2097C66.9218 76.4936 66.5616 78.7375 66.1613 81.0215C66.0813 81.3821 66.2014 81.5424 66.5216 81.6626C67.6823 82.2236 68.5629 83.1051 69.3634 84.1069C71.4847 86.7915 71.2846 91.3194 69.4434 93.9239C66.9618 97.41 62.7592 98.1713 59.7572 97.1295C56.4752 95.9675 54.1937 92.9623 54.1537 89.5163C54.1136 86.7515 55.1943 84.5076 57.3157 82.7846C57.5558 82.5842 57.6359 82.464 57.5959 82.1034C56.7954 77.5354 55.9948 72.9274 55.1943 68.3194C55.1543 67.9989 54.9942 67.7584 54.7541 67.5581C51.472 64.5128 48.1899 61.4675 44.9478 58.3821C44.6276 58.1016 44.4275 57.9814 44.0672 58.3421C43.5469 58.903 42.8264 58.9832 42.0659 58.863C40.2648 58.5424 38.4638 58.0616 36.7027 57.741C33.8208 57.18 30.899 56.7793 28.0171 56.4588C26.4561 56.2985 24.9752 55.8577 23.5743 55.1766C23.054 54.9361 22.6537 55.0964 22.2935 55.3368C22.0533 55.4971 22.1334 55.8978 22.3735 56.0982C23.5743 56.8996 24.4148 58.0215 25.3354 59.1034C25.6156 59.464 26.0559 59.6243 26.4962 59.7445C29.0578 60.626 31.4994 61.748 34.141 62.4292C35.2217 62.6696 36.2624 62.9901 37.3031 63.3107C38.9441 63.8316 39.5845 64.8734 39.4644 66.5964C39.4644 66.7968 39.3844 66.9971 39.2643 67.1173C38.744 67.7184 37.6633 68.4797 36.5426 68.1191C35.5019 67.7584 34.3412 67.7584 33.2605 67.478C30.6188 66.8769 27.9771 66.1957 25.3754 65.3543C24.7751 65.1539 24.0946 65.0738 23.4542 64.9135C22.2134 64.633 21.0927 63.9919 20.1321 63.1905C19.932 63.0302 19.6918 62.8699 19.4917 62.7097C19.4517 62.7497 19.4116 62.7497 19.3716 62.7898C20.012 63.9518 20.2922 65.194 20.6524 66.4762C20.7325 66.7166 20.8926 66.8769 21.0927 66.9571C22.0133 67.3577 22.8538 67.8386 23.5343 68.5598C23.6944 68.7201 23.9345 68.68 24.1347 68.7201C25.3354 69.0407 26.5762 68.8804 27.817 69.0407C28.8977 69.1609 29.8583 69.5215 30.4987 70.4832C31.0191 71.2846 30.859 72.126 30.0985 72.687C29.8583 72.8874 29.6182 72.8874 29.338 72.8874C27.737 72.8072 26.1359 73.1678 24.5349 73.1278C23.7344 73.1278 22.9339 72.9675 22.2134 72.6469C20.6524 71.9658 19.0914 71.2846 17.4904 70.6034C16.89 70.3229 16.4497 69.9222 16.1696 69.3212C15.4491 67.9588 14.7687 66.5564 14.2083 65.1138C13.9281 64.4327 13.688 64.3926 13.1677 64.8734C9.40525 65.9152 6.56343 67.1173 6.56343 67.1173C6.56343 67.1173 6.44336 67.1574 6.12315 67.1975C5.68287 67.2776 4.92239 67.478 3.68159 67.7184C2.88108 68.1191 2.16062 68.3595 1.36011 68.5198C8.28453 91.5598 31.1391 114.52 56.4351 114.52C87.1748 114.52 112.111 89.5964 112.111 58.863C112.111 28.1294 87.2148 3.24609 56.4752 3.24609ZM80.5705 44.2776C73.7662 42.6348 67.0019 40.9919 60.1975 39.3088C50.8716 37.0248 41.5856 34.7409 32.2598 32.497C30.7789 32.1363 29.298 31.7757 27.777 31.4151C27.6569 31.375 27.4568 31.1747 27.3767 31.4551C27.2566 32.0562 26.8164 32.497 26.5762 33.0579C26.3361 33.6189 26.176 34.1799 26.4161 34.6607C26.8964 35.5823 27.2166 36.5841 27.1766 37.5457C27.1366 38.828 27.857 38.828 28.6976 39.0283C30.8189 39.429 32.8202 39.9099 34.7014 40.8717C35.5419 41.3125 36.5026 41.5128 37.3831 41.8734C38.3838 42.3142 39.0642 43.0354 39.1843 44.1975C39.3043 45.7201 38.5439 46.6417 36.9028 47.0825C36.9829 47.2027 36.9829 47.2428 37.0229 47.3229C38.3037 48.9257 39.5845 50.5285 40.8252 52.1313C41.0653 52.4518 41.3855 52.6121 41.7457 52.6922C42.7064 52.9327 43.707 52.9327 44.4275 53.7341C44.5075 53.8142 44.6676 53.8142 44.8277 53.8543C49.1505 54.7759 53.4332 55.6975 57.756 56.6191C59.0768 56.8996 60.3977 57.3003 61.7985 57.4205C64.12 57.5807 66.4415 57.7009 68.803 57.8612C69.1633 57.9013 69.5235 57.8612 69.9237 57.7811C72.6455 56.9797 75.3672 56.2184 78.0489 55.417C77.9689 55.0163 77.9689 54.6557 77.9289 54.255C77.8488 52.3316 78.2491 50.4483 78.8094 48.6051C79.2497 47.0825 79.8501 45.64 80.5705 44.2776ZM67.9625 60.3856C66.0413 61.6278 64.1601 62.91 62.2388 64.1121C61.5584 64.5529 61.2382 64.9135 61.3983 65.795C61.7985 68.1591 62.0387 70.5232 62.3589 72.8874C62.6391 74.971 62.9193 77.0546 63.1594 79.1382C63.3195 80.6609 63.3195 80.6609 64.8005 80.9013C65.0406 80.9414 65.1607 80.9013 65.2007 80.6208C65.4008 79.2985 65.641 77.9361 65.8411 76.6138C66.3214 73.6086 66.8017 70.6034 67.2821 67.6382C67.6823 65.1539 68.0826 62.7097 68.4828 60.1452C68.2427 60.2253 68.1226 60.3055 67.9625 60.3856ZM67.3221 58.9832C65.7211 58.863 64.12 58.7428 62.519 58.6626C61.9587 58.6226 61.4383 58.5825 60.918 58.5424C60.6778 58.5424 60.4777 58.5424 60.5578 58.863C60.7579 60.3455 60.918 61.7881 61.1181 63.3508C63.3195 61.8682 65.4409 60.5058 67.6823 59.0633C67.4422 59.0232 67.3621 59.0232 67.3221 58.9832ZM61.9987 80.3403C61.6785 77.8961 61.3983 75.4518 61.0781 73.0476C60.7579 70.6835 60.4377 68.3595 60.1575 66.0354C60.1175 65.5947 59.9574 65.6348 59.6772 65.8351C58.7966 66.3961 57.9561 66.9971 57.0755 67.518C56.7153 67.7584 56.6353 68.0389 56.7153 68.3996C57.1556 70.7637 57.5558 73.1278 57.9561 75.4919C58.2763 77.3752 58.5965 79.2584 58.9567 81.1417C58.9968 81.3821 59.0368 81.5825 59.397 81.4222C60.1575 81.1016 60.918 80.8212 61.7185 80.7009C61.9987 80.6609 62.0787 80.5407 61.9987 80.3403ZM59.1969 58.5825C59.1569 58.2619 58.9968 58.1417 58.7166 58.0616C55.9148 57.4605 53.073 56.8595 50.2712 56.2584C48.7102 55.8978 47.1492 55.5773 45.7083 55.2968C45.4281 55.2567 45.268 55.1766 45.308 55.3769C45.4681 55.9379 45.1879 56.4989 45.7483 57.0198C47.7496 58.8229 49.7108 60.6661 51.7121 62.5494C53.073 63.8316 54.4338 65.0738 55.7947 66.356C55.9948 66.5163 56.1149 66.6365 56.3951 66.4762C57.4758 65.755 58.5965 65.0337 59.7172 64.3124C59.8773 64.2323 59.9974 64.1121 59.9574 63.8717C59.6772 62.1086 59.437 60.3455 59.1969 58.5825ZM38.5839 51.2097C37.5032 49.8473 36.4225 48.4849 35.3418 47.1626C35.1817 46.9623 35.0216 46.9222 34.8215 46.9623C34.3011 47.1226 33.7808 46.9623 33.2605 46.8821C30.6588 46.4013 28.0572 45.9605 25.4555 45.3194C25.0152 45.1992 24.695 45.4797 24.655 45.9205C24.615 46.6016 24.8951 47.2027 25.1353 47.8037C25.2153 47.964 25.3354 48.0442 25.4955 48.0041C26.3361 47.964 27.1766 48.2044 27.9371 48.4048C29.7783 48.8456 31.5394 49.687 33.3405 50.2079C35.0616 50.6888 36.7827 51.0093 38.6239 51.4501C38.6639 51.3699 38.6239 51.2898 38.5839 51.2097ZM80.5705 44.2776C73.7662 42.6348 67.0019 40.9919 60.1975 39.3088C50.8716 37.0248 41.5856 34.7409 32.2598 32.497C30.7789 32.1363 29.298 31.7757 27.777 31.4151C27.6569 31.375 27.4568 31.1747 27.3767 31.4551C27.2566 32.0562 26.8164 32.497 26.5762 33.0579C26.3361 33.6189 26.176 34.1799 26.4161 34.6607C26.8964 35.5823 27.2166 36.5841 27.1766 37.5457C27.1366 38.828 27.857 38.828 28.6976 39.0283C30.8189 39.429 32.8202 39.9099 34.7014 40.8717C35.5419 41.3125 36.5026 41.5128 37.3831 41.8734C38.3838 42.3142 39.0642 43.0354 39.1843 44.1975C39.3043 45.7201 38.5439 46.6417 36.9028 47.0825C36.9829 47.2027 36.9829 47.2428 37.0229 47.3229C38.3037 48.9257 39.5845 50.5285 40.8252 52.1313C41.0653 52.4518 41.3855 52.6121 41.7457 52.6922C42.7064 52.9327 43.707 52.9327 44.4275 53.7341C44.5075 53.8142 44.6676 53.8142 44.8277 53.8543C49.1505 54.7759 53.4332 55.6975 57.756 56.6191C59.0768 56.8996 60.3977 57.3003 61.7985 57.4205C64.12 57.5807 66.4415 57.7009 68.803 57.8612C69.1633 57.9013 69.5235 57.8612 69.9237 57.7811C72.6455 56.9797 75.3672 56.2184 78.0489 55.417C77.9689 55.0163 77.9689 54.6557 77.9289 54.255C77.8488 52.3316 78.2491 50.4483 78.8094 48.6051C79.2497 47.0825 79.8501 45.64 80.5705 44.2776ZM67.9625 60.3856C66.0413 61.6278 64.1601 62.91 62.2388 64.1121C61.5584 64.5529 61.2382 64.9135 61.3983 65.795C61.7985 68.1591 62.0387 70.5232 62.3589 72.8874C62.6391 74.971 62.9193 77.0546 63.1594 79.1382C63.3195 80.6609 63.3195 80.6609 64.8005 80.9013C65.0406 80.9414 65.1607 80.9013 65.2007 80.6208C65.4008 79.2985 65.641 77.9361 65.8411 76.6138C66.3214 73.6086 66.8017 70.6034 67.2821 67.6382C67.6823 65.1539 68.0826 62.7097 68.4828 60.1452C68.2427 60.2253 68.1226 60.3055 67.9625 60.3856ZM67.3221 58.9832C65.7211 58.863 64.12 58.7428 62.519 58.6626C61.9587 58.6226 61.4383 58.5825 60.918 58.5424C60.6778 58.5424 60.4777 58.5424 60.5578 58.863C60.7579 60.3455 60.918 61.7881 61.1181 63.3508C63.3195 61.8682 65.4409 60.5058 67.6823 59.0633C67.4422 59.0232 67.3621 59.0232 67.3221 58.9832ZM61.9987 80.3403C61.6785 77.8961 61.3983 75.4518 61.0781 73.0476C60.7579 70.6835 60.4377 68.3595 60.1575 66.0354C60.1175 65.5947 59.9574 65.6348 59.6772 65.8351C58.7966 66.3961 57.9561 66.9971 57.0755 67.518C56.7153 67.7584 56.6353 68.0389 56.7153 68.3996C57.1556 70.7637 57.5558 73.1278 57.9561 75.4919C58.2763 77.3752 58.5965 79.2584 58.9567 81.1417C58.9968 81.3821 59.0368 81.5825 59.397 81.4222C60.1575 81.1016 60.918 80.8212 61.7185 80.7009C61.9987 80.6609 62.0787 80.5407 61.9987 80.3403ZM59.1969 58.5825C59.1569 58.2619 58.9968 58.1417 58.7166 58.0616C55.9148 57.4605 53.073 56.8595 50.2712 56.2584C48.7102 55.8978 47.1492 55.5773 45.7083 55.2968C45.4281 55.2567 45.268 55.1766 45.308 55.3769C45.4681 55.9379 45.1879 56.4989 45.7483 57.0198C47.7496 58.8229 49.7108 60.6661 51.7121 62.5494C53.073 63.8316 54.4338 65.0738 55.7947 66.356C55.9948 66.5163 56.1149 66.6365 56.3951 66.4762C57.4758 65.755 58.5965 65.0337 59.7172 64.3124C59.8773 64.2323 59.9974 64.1121 59.9574 63.8717C59.6772 62.1086 59.437 60.3455 59.1969 58.5825ZM38.5839 51.2097C37.5032 49.8473 36.4225 48.4849 35.3418 47.1626C35.1817 46.9623 35.0216 46.9222 34.8215 46.9623C34.3011 47.1226 33.7808 46.9623 33.2605 46.8821C30.6588 46.4013 28.0572 45.9605 25.4555 45.3194C25.0152 45.1992 24.695 45.4797 24.655 45.9205C24.615 46.6016 24.8951 47.2027 25.1353 47.8037C25.2153 47.964 25.3354 48.0442 25.4955 48.0041C26.3361 47.964 27.1766 48.2044 27.9371 48.4048C29.7783 48.8456 31.5394 49.687 33.3405 50.2079C35.0616 50.6888 36.7827 51.0093 38.6239 51.4501C38.6639 51.3699 38.6239 51.2898 38.5839 51.2097Z"/>
</mask>
<path d="M38.5839 51.2097C37.5032 49.8473 36.4225 48.4849 35.3418 47.1626C35.1817 46.9623 35.0216 46.9222 34.8215 46.9623C34.3011 47.1226 33.7808 46.9623 33.2605 46.8821C30.6588 46.4013 28.0572 45.9605 25.4555 45.3194C25.0152 45.1992 24.695 45.4797 24.655 45.9205C24.615 46.6016 24.8951 47.2027 25.1353 47.8037C25.2153 47.964 25.3354 48.0442 25.4955 48.0041C26.3361 47.964 27.1766 48.2044 27.9371 48.4048C29.7783 48.8456 31.5394 49.687 33.3405 50.2079C35.0616 50.6888 36.7827 51.0093 38.6239 51.4501C38.6639 51.3699 38.6239 51.2898 38.5839 51.2097ZM59.1969 58.5825C59.1569 58.2619 58.9968 58.1417 58.7166 58.0616C55.9148 57.4605 53.073 56.8595 50.2712 56.2584C48.7102 55.8978 47.1492 55.5773 45.7083 55.2968C45.4281 55.2567 45.268 55.1766 45.308 55.3769C45.4681 55.9379 45.1879 56.4989 45.7483 57.0198C47.7496 58.8229 49.7108 60.6661 51.7121 62.5494C53.073 63.8316 54.4338 65.0738 55.7947 66.356C55.9948 66.5163 56.1149 66.6365 56.3951 66.4762C57.4758 65.755 58.5965 65.0337 59.7172 64.3124C59.8773 64.2323 59.9974 64.1121 59.9574 63.8717C59.6772 62.1086 59.437 60.3455 59.1969 58.5825ZM61.9987 80.3403C61.6785 77.8961 61.3983 75.4518 61.0781 73.0476C60.7579 70.6835 60.4377 68.3595 60.1575 66.0354C60.1175 65.5947 59.9574 65.6348 59.6772 65.8351C58.7966 66.3961 57.9561 66.9971 57.0755 67.518C56.7153 67.7584 56.6353 68.0389 56.7153 68.3996C57.1556 70.7637 57.5558 73.1278 57.9561 75.4919C58.2763 77.3752 58.5965 79.2584 58.9567 81.1417C58.9968 81.3821 59.0368 81.5825 59.397 81.4222C60.1575 81.1016 60.918 80.8212 61.7185 80.7009C61.9987 80.6609 62.0787 80.5407 61.9987 80.3403ZM67.3221 58.9832C65.7211 58.863 64.12 58.7428 62.519 58.6626C61.9587 58.6226 61.4383 58.5825 60.918 58.5424C60.6778 58.5424 60.4777 58.5424 60.5578 58.863C60.7579 60.3455 60.918 61.7881 61.1181 63.3508C63.3195 61.8682 65.4409 60.5058 67.6823 59.0633C67.4422 59.0232 67.3621 59.0232 67.3221 58.9832ZM67.9625 60.3856C66.0413 61.6278 64.1601 62.91 62.2388 64.1121C61.5584 64.5529 61.2382 64.9135 61.3983 65.795C61.7985 68.1591 62.0387 70.5232 62.3589 72.8874C62.6391 74.971 62.9193 77.0546 63.1594 79.1382C63.3195 80.6609 63.3195 80.6609 64.8005 80.9013C65.0406 80.9414 65.1607 80.9013 65.2007 80.6208C65.4008 79.2985 65.641 77.9361 65.8411 76.6138C66.3214 73.6086 66.8017 70.6034 67.2821 67.6382C67.6823 65.1539 68.0826 62.7097 68.4828 60.1452C68.2427 60.2253 68.1226 60.3055 67.9625 60.3856ZM80.5705 44.2776C73.7662 42.6348 67.0019 40.9919 60.1975 39.3088C50.8716 37.0248 41.5856 34.7409 32.2598 32.497C30.7789 32.1363 29.298 31.7757 27.777 31.4151C27.6569 31.375 27.4568 31.1747 27.3767 31.4551C27.2566 32.0562 26.8164 32.497 26.5762 33.0579C26.3361 33.6189 26.176 34.1799 26.4161 34.6607C26.8964 35.5823 27.2166 36.5841 27.1766 37.5457C27.1366 38.828 27.857 38.828 28.6976 39.0283C30.8189 39.429 32.8202 39.9099 34.7014 40.8717C35.5419 41.3125 36.5026 41.5128 37.3831 41.8734C38.3838 42.3142 39.0642 43.0354 39.1843 44.1975C39.3043 45.7201 38.5439 46.6417 36.9028 47.0825C36.9829 47.2027 36.9829 47.2428 37.0229 47.3229C38.3037 48.9257 39.5845 50.5285 40.8252 52.1313C41.0653 52.4518 41.3855 52.6121 41.7457 52.6922C42.7064 52.9327 43.707 52.9327 44.4275 53.7341C44.5075 53.8142 44.6676 53.8142 44.8277 53.8543C49.1505 54.7759 53.4332 55.6975 57.756 56.6191C59.0768 56.8996 60.3977 57.3003 61.7985 57.4205C64.12 57.5807 66.4415 57.7009 68.803 57.8612C69.1633 57.9013 69.5235 57.8612 69.9237 57.7811C72.6455 56.9797 75.3672 56.2184 78.0489 55.417C77.9689 55.0163 77.9689 54.6557 77.9289 54.255C77.8488 52.3316 78.2491 50.4483 78.8094 48.6051C79.2497 47.0825 79.8501 45.64 80.5705 44.2776ZM56.4752 3.24609C28.4174 3.24609 5.16254 24.0423 1.40013 51.0895C1.92047 50.5685 2.40077 50.0076 2.84105 49.4065C3.64156 48.3647 4.48211 47.403 5.40269 46.4414C5.60282 46.241 5.76292 45.9605 6.00308 45.7602C6.32328 45.4396 6.36331 45.3194 6.96369 45.0389C7.04374 44.9989 7.16382 44.9187 7.32392 44.8787C7.36395 44.7584 7.56407 44.7184 7.64413 44.6382C8.60474 43.7567 9.68543 43.1557 10.7661 42.5145C12.4872 41.5128 13.9682 40.2306 14.9288 38.4273C15.209 37.8663 15.6092 37.3053 16.0895 36.9046C16.85 36.2635 17.5304 35.5022 18.3309 34.821C20.2122 33.2984 20.8926 31.3349 20.4123 28.9308C20.2122 27.929 19.8919 26.9673 19.932 25.9255C19.972 24.9639 20.5724 24.0022 21.4529 23.6816C22.2935 23.321 22.9339 23.3611 23.7344 24.0423C25.4955 25.5248 26.3361 27.4882 27.0565 29.5318C27.2166 29.9726 27.4968 29.9726 27.817 30.0928C32.8202 31.2949 37.8234 32.537 42.8665 33.7391C50.9116 35.7025 58.9968 37.666 67.0819 39.6694C71.8049 40.8316 76.528 41.9536 81.251 43.1557C81.9314 42.1138 82.6919 41.1522 83.6125 40.3107C87.4549 36.7043 93.0585 35.5823 97.1411 32.2966C97.6214 31.936 98.0617 31.5353 98.3419 31.0144C98.7021 30.4534 98.8622 29.7722 99.3826 29.3315C100.143 28.6903 101.384 28.9308 102.104 29.6119C102.825 30.3332 103.025 31.375 103.025 32.3768C103.025 34.3802 102.144 36.4238 100.703 37.8262C100.183 38.3471 99.5827 38.7879 99.2625 39.429C98.9823 40.0301 99.0223 40.7114 98.9022 41.3525C98.8222 41.9936 98.502 42.6748 97.9016 42.9152C98.582 43.0755 99.3025 42.9954 99.9429 43.1156C101.824 43.5163 102.825 45.5999 104.426 46.6818C105.627 47.4832 107.348 47.9239 107.748 49.2863C107.988 50.0476 107.708 50.8891 107.308 51.5302C106.907 52.2915 106.347 53.0128 105.506 53.2933C104.306 53.694 102.985 52.9727 101.944 52.2515C100.904 51.5302 99.7428 50.6487 98.462 50.7288C98.2618 50.7288 98.1017 50.7689 97.9416 50.8891C97.5013 51.1696 97.5414 51.9309 97.8616 52.3717C98.502 53.3334 99.7828 53.6539 100.783 54.255C101.504 54.6557 102.184 55.2166 102.785 55.7776C103.105 56.0581 103.425 56.3386 103.745 56.6191C105.386 58.0616 107.067 59.5442 108.709 61.0267C109.629 61.8682 110.59 62.7898 110.79 63.9919C111.03 65.6347 109.469 67.3577 107.788 67.1574C106.907 67.0773 106.107 66.5564 105.386 66.0354C103.065 64.3926 100.823 62.6295 98.7421 60.7062C98.8222 62.1086 98.6621 62.3891 99.6227 63.3107C100.623 64.1922 101.824 64.9135 102.785 65.795C103.105 66.1156 105.587 68.079 105.667 68.5198C105.787 69.0407 106.227 70.0825 105.987 70.6034C105.466 71.6853 104.106 72.8874 102.905 72.6469C101.824 72.4466 100.703 71.4449 98.3819 70.0424L94.4994 67.8786C95.9804 69.1208 98.1017 70.8037 98.2618 71.0041C98.3819 71.1644 98.542 71.3246 98.6221 71.4849C98.8622 71.9257 98.6221 72.4867 98.3819 72.9274C98.1418 73.4083 97.8616 73.9292 97.3412 74.1696C97.0611 74.2898 96.7809 74.2898 96.5007 74.2898C95.7402 74.2497 94.9797 73.9692 94.3393 73.5285C93.4588 72.9274 92.8984 71.9658 92.1379 71.2044C91.1773 70.2027 89.8965 69.5616 88.8959 68.5598C88.2154 67.8787 87.6951 67.0773 87.0147 66.4361C86.2942 65.7149 85.4537 65.194 84.6131 64.5929C82.7319 63.2306 81.0909 61.5476 79.73 59.7044L79.65 59.6243C78.9295 58.7828 78.4092 57.8212 78.0489 56.7393C75.4473 57.5006 72.8456 58.2219 70.2039 58.9832C69.8437 59.0633 69.6436 59.2236 69.6035 59.6644C68.843 64.5128 68.0425 69.3612 67.2821 74.2097C66.9218 76.4936 66.5616 78.7375 66.1613 81.0215C66.0813 81.3821 66.2014 81.5424 66.5216 81.6626C67.6823 82.2236 68.5629 83.1051 69.3634 84.1069C71.4847 86.7915 71.2846 91.3194 69.4434 93.9239C66.9618 97.41 62.7592 98.1713 59.7572 97.1295C56.4752 95.9675 54.1937 92.9623 54.1537 89.5163C54.1136 86.7515 55.1943 84.5076 57.3157 82.7846C57.5558 82.5842 57.6359 82.464 57.5959 82.1034C56.7954 77.5354 55.9948 72.9274 55.1943 68.3194C55.1543 67.9989 54.9942 67.7584 54.7541 67.5581C51.472 64.5128 48.1899 61.4675 44.9478 58.3821C44.6276 58.1016 44.4275 57.9814 44.0672 58.3421C43.5469 58.903 42.8264 58.9832 42.0659 58.863C40.2648 58.5424 38.4638 58.0616 36.7027 57.741C33.8208 57.18 30.899 56.7793 28.0171 56.4588C26.4561 56.2985 24.9752 55.8577 23.5743 55.1766C23.054 54.9361 22.6537 55.0964 22.2935 55.3368C22.0533 55.4971 22.1334 55.8978 22.3735 56.0982C23.5743 56.8996 24.4148 58.0215 25.3354 59.1034C25.6156 59.464 26.0559 59.6243 26.4962 59.7445C29.0578 60.626 31.4994 61.748 34.141 62.4292C35.2217 62.6696 36.2624 62.9901 37.3031 63.3107C38.9441 63.8316 39.5845 64.8734 39.4644 66.5964C39.4644 66.7968 39.3844 66.9971 39.2643 67.1173C38.744 67.7184 37.6633 68.4797 36.5426 68.1191C35.5019 67.7584 34.3412 67.7584 33.2605 67.478C30.6188 66.8769 27.9771 66.1957 25.3754 65.3543C24.7751 65.1539 24.0946 65.0738 23.4542 64.9135C22.2134 64.633 21.0927 63.9919 20.1321 63.1905C19.932 63.0302 19.6918 62.8699 19.4917 62.7097C19.4517 62.7497 19.4116 62.7497 19.3716 62.7898C20.012 63.9518 20.2922 65.194 20.6524 66.4762C20.7325 66.7166 20.8926 66.8769 21.0927 66.9571C22.0133 67.3577 22.8538 67.8386 23.5343 68.5598C23.6944 68.7201 23.9345 68.68 24.1347 68.7201C25.3354 69.0407 26.5762 68.8804 27.817 69.0407C28.8977 69.1609 29.8583 69.5215 30.4987 70.4832C31.0191 71.2846 30.859 72.126 30.0985 72.687C29.8583 72.8874 29.6182 72.8874 29.338 72.8874C27.737 72.8072 26.1359 73.1678 24.5349 73.1278C23.7344 73.1278 22.9339 72.9675 22.2134 72.6469C20.6524 71.9658 19.0914 71.2846 17.4904 70.6034C16.89 70.3229 16.4497 69.9222 16.1696 69.3212C15.4491 67.9588 14.7687 66.5564 14.2083 65.1138C13.9281 64.4327 13.688 64.3926 13.1677 64.8734C9.40525 65.9152 6.56343 67.1173 6.56343 67.1173C6.56343 67.1173 6.44336 67.1574 6.12315 67.1975C5.68287 67.2776 4.92239 67.478 3.68159 67.7184C2.88108 68.1191 2.16062 68.3595 1.36011 68.5198C8.28453 91.5598 31.1391 114.52 56.4351 114.52C87.1748 114.52 112.111 89.5964 112.111 58.863C112.111 28.1294 87.2148 3.24609 56.4752 3.24609ZM80.5705 44.2776C73.7662 42.6348 67.0019 40.9919 60.1975 39.3088C50.8716 37.0248 41.5856 34.7409 32.2598 32.497C30.7789 32.1363 29.298 31.7757 27.777 31.4151C27.6569 31.375 27.4568 31.1747 27.3767 31.4551C27.2566 32.0562 26.8164 32.497 26.5762 33.0579C26.3361 33.6189 26.176 34.1799 26.4161 34.6607C26.8964 35.5823 27.2166 36.5841 27.1766 37.5457C27.1366 38.828 27.857 38.828 28.6976 39.0283C30.8189 39.429 32.8202 39.9099 34.7014 40.8717C35.5419 41.3125 36.5026 41.5128 37.3831 41.8734C38.3838 42.3142 39.0642 43.0354 39.1843 44.1975C39.3043 45.7201 38.5439 46.6417 36.9028 47.0825C36.9829 47.2027 36.9829 47.2428 37.0229 47.3229C38.3037 48.9257 39.5845 50.5285 40.8252 52.1313C41.0653 52.4518 41.3855 52.6121 41.7457 52.6922C42.7064 52.9327 43.707 52.9327 44.4275 53.7341C44.5075 53.8142 44.6676 53.8142 44.8277 53.8543C49.1505 54.7759 53.4332 55.6975 57.756 56.6191C59.0768 56.8996 60.3977 57.3003 61.7985 57.4205C64.12 57.5807 66.4415 57.7009 68.803 57.8612C69.1633 57.9013 69.5235 57.8612 69.9237 57.7811C72.6455 56.9797 75.3672 56.2184 78.0489 55.417C77.9689 55.0163 77.9689 54.6557 77.9289 54.255C77.8488 52.3316 78.2491 50.4483 78.8094 48.6051C79.2497 47.0825 79.8501 45.64 80.5705 44.2776ZM67.9625 60.3856C66.0413 61.6278 64.1601 62.91 62.2388 64.1121C61.5584 64.5529 61.2382 64.9135 61.3983 65.795C61.7985 68.1591 62.0387 70.5232 62.3589 72.8874C62.6391 74.971 62.9193 77.0546 63.1594 79.1382C63.3195 80.6609 63.3195 80.6609 64.8005 80.9013C65.0406 80.9414 65.1607 80.9013 65.2007 80.6208C65.4008 79.2985 65.641 77.9361 65.8411 76.6138C66.3214 73.6086 66.8017 70.6034 67.2821 67.6382C67.6823 65.1539 68.0826 62.7097 68.4828 60.1452C68.2427 60.2253 68.1226 60.3055 67.9625 60.3856ZM67.3221 58.9832C65.7211 58.863 64.12 58.7428 62.519 58.6626C61.9587 58.6226 61.4383 58.5825 60.918 58.5424C60.6778 58.5424 60.4777 58.5424 60.5578 58.863C60.7579 60.3455 60.918 61.7881 61.1181 63.3508C63.3195 61.8682 65.4409 60.5058 67.6823 59.0633C67.4422 59.0232 67.3621 59.0232 67.3221 58.9832ZM61.9987 80.3403C61.6785 77.8961 61.3983 75.4518 61.0781 73.0476C60.7579 70.6835 60.4377 68.3595 60.1575 66.0354C60.1175 65.5947 59.9574 65.6348 59.6772 65.8351C58.7966 66.3961 57.9561 66.9971 57.0755 67.518C56.7153 67.7584 56.6353 68.0389 56.7153 68.3996C57.1556 70.7637 57.5558 73.1278 57.9561 75.4919C58.2763 77.3752 58.5965 79.2584 58.9567 81.1417C58.9968 81.3821 59.0368 81.5825 59.397 81.4222C60.1575 81.1016 60.918 80.8212 61.7185 80.7009C61.9987 80.6609 62.0787 80.5407 61.9987 80.3403ZM59.1969 58.5825C59.1569 58.2619 58.9968 58.1417 58.7166 58.0616C55.9148 57.4605 53.073 56.8595 50.2712 56.2584C48.7102 55.8978 47.1492 55.5773 45.7083 55.2968C45.4281 55.2567 45.268 55.1766 45.308 55.3769C45.4681 55.9379 45.1879 56.4989 45.7483 57.0198C47.7496 58.8229 49.7108 60.6661 51.7121 62.5494C53.073 63.8316 54.4338 65.0738 55.7947 66.356C55.9948 66.5163 56.1149 66.6365 56.3951 66.4762C57.4758 65.755 58.5965 65.0337 59.7172 64.3124C59.8773 64.2323 59.9974 64.1121 59.9574 63.8717C59.6772 62.1086 59.437 60.3455 59.1969 58.5825ZM38.5839 51.2097C37.5032 49.8473 36.4225 48.4849 35.3418 47.1626C35.1817 46.9623 35.0216 46.9222 34.8215 46.9623C34.3011 47.1226 33.7808 46.9623 33.2605 46.8821C30.6588 46.4013 28.0572 45.9605 25.4555 45.3194C25.0152 45.1992 24.695 45.4797 24.655 45.9205C24.615 46.6016 24.8951 47.2027 25.1353 47.8037C25.2153 47.964 25.3354 48.0442 25.4955 48.0041C26.3361 47.964 27.1766 48.2044 27.9371 48.4048C29.7783 48.8456 31.5394 49.687 33.3405 50.2079C35.0616 50.6888 36.7827 51.0093 38.6239 51.4501C38.6639 51.3699 38.6239 51.2898 38.5839 51.2097ZM80.5705 44.2776C73.7662 42.6348 67.0019 40.9919 60.1975 39.3088C50.8716 37.0248 41.5856 34.7409 32.2598 32.497C30.7789 32.1363 29.298 31.7757 27.777 31.4151C27.6569 31.375 27.4568 31.1747 27.3767 31.4551C27.2566 32.0562 26.8164 32.497 26.5762 33.0579C26.3361 33.6189 26.176 34.1799 26.4161 34.6607C26.8964 35.5823 27.2166 36.5841 27.1766 37.5457C27.1366 38.828 27.857 38.828 28.6976 39.0283C30.8189 39.429 32.8202 39.9099 34.7014 40.8717C35.5419 41.3125 36.5026 41.5128 37.3831 41.8734C38.3838 42.3142 39.0642 43.0354 39.1843 44.1975C39.3043 45.7201 38.5439 46.6417 36.9028 47.0825C36.9829 47.2027 36.9829 47.2428 37.0229 47.3229C38.3037 48.9257 39.5845 50.5285 40.8252 52.1313C41.0653 52.4518 41.3855 52.6121 41.7457 52.6922C42.7064 52.9327 43.707 52.9327 44.4275 53.7341C44.5075 53.8142 44.6676 53.8142 44.8277 53.8543C49.1505 54.7759 53.4332 55.6975 57.756 56.6191C59.0768 56.8996 60.3977 57.3003 61.7985 57.4205C64.12 57.5807 66.4415 57.7009 68.803 57.8612C69.1633 57.9013 69.5235 57.8612 69.9237 57.7811C72.6455 56.9797 75.3672 56.2184 78.0489 55.417C77.9689 55.0163 77.9689 54.6557 77.9289 54.255C77.8488 52.3316 78.2491 50.4483 78.8094 48.6051C79.2497 47.0825 79.8501 45.64 80.5705 44.2776ZM67.9625 60.3856C66.0413 61.6278 64.1601 62.91 62.2388 64.1121C61.5584 64.5529 61.2382 64.9135 61.3983 65.795C61.7985 68.1591 62.0387 70.5232 62.3589 72.8874C62.6391 74.971 62.9193 77.0546 63.1594 79.1382C63.3195 80.6609 63.3195 80.6609 64.8005 80.9013C65.0406 80.9414 65.1607 80.9013 65.2007 80.6208C65.4008 79.2985 65.641 77.9361 65.8411 76.6138C66.3214 73.6086 66.8017 70.6034 67.2821 67.6382C67.6823 65.1539 68.0826 62.7097 68.4828 60.1452C68.2427 60.2253 68.1226 60.3055 67.9625 60.3856ZM67.3221 58.9832C65.7211 58.863 64.12 58.7428 62.519 58.6626C61.9587 58.6226 61.4383 58.5825 60.918 58.5424C60.6778 58.5424 60.4777 58.5424 60.5578 58.863C60.7579 60.3455 60.918 61.7881 61.1181 63.3508C63.3195 61.8682 65.4409 60.5058 67.6823 59.0633C67.4422 59.0232 67.3621 59.0232 67.3221 58.9832ZM61.9987 80.3403C61.6785 77.8961 61.3983 75.4518 61.0781 73.0476C60.7579 70.6835 60.4377 68.3595 60.1575 66.0354C60.1175 65.5947 59.9574 65.6348 59.6772 65.8351C58.7966 66.3961 57.9561 66.9971 57.0755 67.518C56.7153 67.7584 56.6353 68.0389 56.7153 68.3996C57.1556 70.7637 57.5558 73.1278 57.9561 75.4919C58.2763 77.3752 58.5965 79.2584 58.9567 81.1417C58.9968 81.3821 59.0368 81.5825 59.397 81.4222C60.1575 81.1016 60.918 80.8212 61.7185 80.7009C61.9987 80.6609 62.0787 80.5407 61.9987 80.3403ZM59.1969 58.5825C59.1569 58.2619 58.9968 58.1417 58.7166 58.0616C55.9148 57.4605 53.073 56.8595 50.2712 56.2584C48.7102 55.8978 47.1492 55.5773 45.7083 55.2968C45.4281 55.2567 45.268 55.1766 45.308 55.3769C45.4681 55.9379 45.1879 56.4989 45.7483 57.0198C47.7496 58.8229 49.7108 60.6661 51.7121 62.5494C53.073 63.8316 54.4338 65.0738 55.7947 66.356C55.9948 66.5163 56.1149 66.6365 56.3951 66.4762C57.4758 65.755 58.5965 65.0337 59.7172 64.3124C59.8773 64.2323 59.9974 64.1121 59.9574 63.8717C59.6772 62.1086 59.437 60.3455 59.1969 58.5825ZM38.5839 51.2097C37.5032 49.8473 36.4225 48.4849 35.3418 47.1626C35.1817 46.9623 35.0216 46.9222 34.8215 46.9623C34.3011 47.1226 33.7808 46.9623 33.2605 46.8821C30.6588 46.4013 28.0572 45.9605 25.4555 45.3194C25.0152 45.1992 24.695 45.4797 24.655 45.9205C24.615 46.6016 24.8951 47.2027 25.1353 47.8037C25.2153 47.964 25.3354 48.0442 25.4955 48.0041C26.3361 47.964 27.1766 48.2044 27.9371 48.4048C29.7783 48.8456 31.5394 49.687 33.3405 50.2079C35.0616 50.6888 36.7827 51.0093 38.6239 51.4501C38.6639 51.3699 38.6239 51.2898 38.5839 51.2097Z" fill="black" stroke="black" stroke-width="2" mask="url(#path-2-inside-1_819_1586)"/>
<path d="M58.5977 0.5C90.6712 0.500127 116.695 26.0101 116.695 57.5C116.695 88.9899 90.6712 114.5 58.5977 114.5C26.4842 114.5 0.5 88.9902 0.5 57.5C0.500001 26.0098 26.4842 0.5 58.5977 0.5ZM58.5977 4.78906C33.3529 4.78906 12.1792 21.894 6.43945 44.9561C5.42855 48.9637 4.90332 53.1721 4.90332 57.5C4.90332 60.8142 5.18606 64.0515 5.79297 67.2109C10.4415 91.6909 32.3435 110.211 58.5977 110.211C88.2435 110.211 112.291 86.6351 112.291 57.5C112.291 28.3649 88.2435 4.78919 58.5977 4.78906Z" fill="black" stroke="black"/>
<path d="M321.899 0.5C332.497 0.500044 341.773 2.82572 349.882 7.53223V7.5332C357.93 12.2441 364.201 18.7265 368.633 26.9873C373.066 35.2474 375.254 44.6789 375.254 55.1562C375.254 65.9372 371.917 75.831 365.228 84.9189C358.522 94.0294 350.177 101.288 340.258 106.561C330.325 111.841 320.97 114.5 312.05 114.5C301.451 114.5 292.174 112.173 284.133 107.534C276.09 102.894 269.886 96.4125 265.382 88.1475C260.95 79.8862 258.695 70.4549 258.695 59.9814C258.695 49.2012 262.032 39.3068 268.654 30.1484C275.36 20.969 283.635 13.7115 293.621 8.43945H293.622C303.554 3.15897 312.978 0.5 321.899 0.5ZM313.772 15.4951C308.491 15.4951 303.636 17.1893 299.217 20.4893L299.214 20.4922C294.869 23.7902 291.375 28.343 288.866 34.0645C286.356 39.7867 285.036 46.1991 285.036 53.3633C285.036 61.7527 286.282 69.4653 288.923 76.4248V76.4258C291.499 83.3956 295.406 88.9899 300.65 93.1895C305.916 97.4073 312.367 99.5049 320.108 99.5049C325.322 99.5049 330.108 97.8084 334.525 94.5098C338.944 91.2092 342.369 86.6538 344.876 80.9355C347.386 75.2134 348.707 68.8009 348.707 61.6367C348.707 53.108 347.46 45.394 344.887 38.5029C342.379 31.5305 338.471 26.0067 333.23 21.8096C327.964 17.5919 321.513 15.4951 313.772 15.4951Z" fill="black" stroke="black"/>
<path d="M431.814 73.5644L431.607 73.2196L395.313 15.0306L395.107 14.7548L394.762 14.548L384.983 9.17027L387.049 4.1373H429.128V7.79138L417.696 16.5474L416.731 17.3058L417.42 18.3399L444.004 60.9475L445.105 62.74L446.276 60.9475L473.686 19.5809L474.581 18.202L473.066 17.5815L452.888 8.96343L455.298 4.06836H496.482V7.65349L484.912 15.3064L484.705 15.4442L484.567 15.6511L449.513 69.014L449.306 69.3587V101.556L450.271 101.832L463.769 105.968L461.427 110.726H418.866V107.072L431.401 97.2124L431.951 96.7987V73.5644H431.814Z" fill="black" stroke="black" stroke-width="4"/>
<path d="M568.245 0.5C578.358 0.5 587.288 2.82516 595.052 7.5293C602.822 12.2374 608.818 18.717 613.047 26.9785C617.276 35.2414 619.398 44.6763 619.398 55.1562C619.397 65.9424 616.195 75.8396 609.778 84.9277C603.347 94.038 595.345 101.294 585.773 106.564C576.185 111.844 567.107 114.5 558.466 114.5C548.423 114.5 539.561 112.175 531.865 107.539C524.166 102.901 518.167 96.4207 513.869 88.1562C509.573 79.895 507.452 70.4613 507.452 59.9814C507.452 49.1955 510.655 39.2978 517.072 30.1396C523.504 20.9613 531.506 13.7053 541.01 8.43457C550.528 3.1564 559.604 0.500086 568.245 0.5ZM560.188 12.875C554.297 12.8751 548.96 14.633 544.192 18.1416C539.36 21.6474 535.589 26.478 532.804 32.6816C530.017 38.8893 528.628 45.786 528.628 53.3633C528.628 62.2392 530.014 70.3661 532.792 77.6689V77.6699C535.576 85.0544 539.759 90.925 545.418 95.3311C551.097 99.7529 558.097 101.986 566.455 101.986C572.278 101.986 577.684 100.229 582.52 96.7207C587.35 93.2169 591.189 88.3876 593.976 82.251C596.764 76.1108 598.152 69.2135 598.152 61.6367C598.152 52.6919 596.767 44.4953 593.987 37.1914H593.988C591.205 29.8067 587.02 23.9349 581.291 19.5283C575.612 15.1073 568.543 12.875 560.188 12.875Z" fill="black" stroke="black"/>
<path d="M184.095 73.5644L183.888 73.2196L147.525 14.9616L147.319 14.6858L146.974 14.479L137.195 9.10133L139.261 4.1373H181.34V7.79138L169.976 16.6163L169.012 17.3747L169.701 18.4089L196.284 61.0164L197.386 62.809L198.557 61.0164L225.967 19.6499L226.862 18.271L225.347 17.6505L205.1 8.96343L207.51 4.06836H248.694V7.65349L237.124 15.3064L236.917 15.4442L236.779 15.6511L201.725 69.014L201.518 69.3587V101.556L202.483 101.832L215.981 105.968L213.639 110.726H171.078V107.072L183.612 97.2124L184.163 96.7987V73.5644H184.095Z" fill="black" stroke="black" stroke-width="4"/>
</svg>
